<svg fill="none" height="18" viewBox="0 0 32 18" width="32" xmlns="http://www.w3.org/2000/svg"><path clip-rule="evenodd" d="m12.5715.5h4.5714l1.1429 1h-6.8572zm19.4285 3v9l-3.4286-1h-1.1428l-2.2857 3h-4.5715v1h3.4286l1.1429 1-1.1429 1h-18.28571l-1.14286-1 1.14286-1h3.42857v-1h-5.71429l-1.14285-3h-2.28572v-1h27.4286v-1h-27.4286v-1h2.28572v-1l4.57142-3h3.42866v-2h9.1428v2h3.4285l4.5715 2h1.1428zm-18.2857 3c0 .55228-.5117 1-1.1429 1s-1.1428-.44772-1.1428-1 .5116-1 1.1428-1 1.1429.44772 1.1429 1zm3.4285 1c.6312 0 1.1429-.44772 1.1429-1s-.5117-1-1.1429-1c-.6311 0-1.1428.44772-1.1428 1s.5117 1 1.1428 1zm-5.7142 7v1h6.8571v-1z" fill="#0069ff" fill-rule="evenodd"/></svg>