<svg fill="none" height="262" viewBox="0 0 388 262" width="388" xmlns="http://www.w3.org/2000/svg" xmlns:xlink="http://www.w3.org/1999/xlink"><linearGradient id="a" gradientUnits="userSpaceOnUse" x1="375.675" x2="375.675" y1="155.079" y2="9.40608"><stop offset=".3153" stop-color="#d5e003"/><stop offset=".740546" stop-color="#0cd486"/></linearGradient><linearGradient id="b" gradientUnits="userSpaceOnUse" x1="366.718" x2="382.416" y1="115.893" y2="164.07"><stop offset="0" stop-color="#fff"/><stop offset=".1257" stop-color="#edf7fc"/><stop offset=".4105" stop-color="#cbe9f7"/><stop offset=".6451" stop-color="#b6dff3"/><stop offset=".7985" stop-color="#aedcf2"/></linearGradient><linearGradient id="c"><stop offset="0" stop-color="#0069ff"/><stop offset=".5" stop-color="#4994ff"/><stop offset=".61" stop-color="#4491ff"/><stop offset=".73" stop-color="#3689ff"/><stop offset=".86" stop-color="#1f7bff"/><stop offset="1" stop-color="#0069ff"/></linearGradient><linearGradient id="d" gradientUnits="userSpaceOnUse" x1="372" x2="232.762" xlink:href="#c" y1="276.583" y2="276.583"/><linearGradient id="e"><stop offset="0" stop-color="#002da1"/><stop offset=".08" stop-color="#003dbb"/><stop offset=".19" stop-color="#0050d8"/><stop offset=".29" stop-color="#005eee"/><stop offset=".4" stop-color="#0066fa"/><stop offset=".5" stop-color="#0069ff"/><stop offset=".59" stop-color="#0065fa"/><stop offset=".7" stop-color="#005dec"/><stop offset=".81" stop-color="#004ed5"/><stop offset=".93" stop-color="#003ab5"/><stop offset="1" stop-color="#002da1"/></linearGradient><linearGradient id="f" gradientUnits="userSpaceOnUse" x1="372" x2="232.762" xlink:href="#e" y1="251.735" y2="251.735"/><linearGradient id="g" gradientUnits="userSpaceOnUse" x1="372" x2="232.762" xlink:href="#c" y1="228.926" y2="228.926"/><linearGradient id="h" gradientUnits="userSpaceOnUse" x1="372" x2="371.541" xlink:href="#e" y1="204.079" y2="204.079"/><linearGradient id="i" gradientUnits="userSpaceOnUse" x1="384.155" x2="220.3" xlink:href="#e" y1="204.297" y2="204.297"/><linearGradient id="j" gradientUnits="userSpaceOnUse" x1="372" x2="232.762" xlink:href="#c" y1="181.265" y2="181.265"/><linearGradient id="k" gradientUnits="userSpaceOnUse" x1="384.155" x2="220.3" xlink:href="#e" y1="156.417" y2="156.417"/><linearGradient id="l" gradientUnits="userSpaceOnUse" x1="372" x2="232.762" xlink:href="#c" y1="132.616" y2="132.616"/><linearGradient id="m" gradientUnits="userSpaceOnUse" x1="218.242" x2="79.0046" xlink:href="#c" y1="276.754" y2="276.754"/><linearGradient id="n" gradientUnits="userSpaceOnUse" x1="390.382" x2="210.312" xlink:href="#e" y1="108.761" y2="108.761"/><linearGradient id="o"><stop offset="0" stop-color="#fff"/><stop offset="1" stop-color="#fff" stop-opacity="0"/></linearGradient><linearGradient id="p" gradientUnits="userSpaceOnUse" x1="302.381" x2="302.381" xlink:href="#o" y1="117.202" y2="5.01775"/><linearGradient id="q" gradientUnits="userSpaceOnUse" x1="218.242" x2="79" xlink:href="#e" y1="251.906" y2="251.906"/><linearGradient id="r" gradientUnits="userSpaceOnUse" x1="218.242" x2="79.0046" xlink:href="#c" y1="230.107" y2="230.107"/><linearGradient id="s" gradientUnits="userSpaceOnUse" x1="218.242" x2="79" xlink:href="#e" y1="205.26" y2="205.26"/><linearGradient id="t" gradientUnits="userSpaceOnUse" x1="218.242" x2="79.0046" xlink:href="#c" y1="183.521" y2="183.521"/><linearGradient id="u" gradientUnits="userSpaceOnUse" x1="244.743" x2="50.7869" xlink:href="#e" y1="158.618" y2="158.618"/><linearGradient id="v" gradientUnits="userSpaceOnUse" x1="148.623" x2="148.623" xlink:href="#o" y1="167.306" y2="55.1216"/><linearGradient id="w" gradientUnits="userSpaceOnUse" x1="61.4577" x2="674.302" y1="182.503" y2="386.558"><stop offset=".61" stop-color="#00455b"/><stop offset=".7" stop-color="#00465d"/><stop offset=".76" stop-color="#004d66"/><stop offset=".81" stop-color="#005874"/><stop offset=".85" stop-color="#006789"/><stop offset=".89" stop-color="#007ba4"/><stop offset=".93" stop-color="#0093c4"/><stop offset=".97" stop-color="#00b0ea"/><stop offset=".98" stop-color="#00bfff"/></linearGradient><linearGradient id="x" gradientUnits="userSpaceOnUse" x1="51.0693" x2="436.383" y1="185.803" y2="185.803"><stop offset="0" stop-color="#00bfff"/><stop offset=".06" stop-color="#09c1fe"/><stop offset=".16" stop-color="#22c7fc"/><stop offset=".28" stop-color="#4bd2f9"/><stop offset=".43" stop-color="#84e0f6"/><stop offset=".59" stop-color="#cbf3f1"/><stop offset=".6" stop-color="#cff4f1"/><stop offset=".63" stop-color="#c6f1f1"/><stop offset=".7" stop-color="#afebf3"/><stop offset=".77" stop-color="#89e2f5"/><stop offset=".86" stop-color="#54d4f9"/><stop offset=".96" stop-color="#12c3fd"/><stop offset=".98" stop-color="#00bfff"/></linearGradient><linearGradient id="y" gradientUnits="userSpaceOnUse" x1="-61.392" x2="619.537" y1="248.392" y2="248.392"><stop offset="0" stop-color="#00bfff"/><stop offset=".03" stop-color="#00a9e2"/><stop offset=".07" stop-color="#008ebe"/><stop offset=".11" stop-color="#00779f"/><stop offset=".16" stop-color="#006586"/><stop offset=".21" stop-color="#005672"/><stop offset=".27" stop-color="#004c65"/><stop offset=".35" stop-color="#00465d"/><stop offset=".49" stop-color="#00455b"/><stop offset=".55" stop-color="#004b63"/><stop offset=".64" stop-color="#005c7a"/><stop offset=".75" stop-color="#0078a0"/><stop offset=".89" stop-color="#009fd4"/><stop offset=".98" stop-color="#00bfff"/></linearGradient><clipPath id="z"><path d="m0 0h293v307.004h-293z" transform="matrix(-1 0 0 1 372 .047806)"/></clipPath><path d="m404.605 146.332c.09-4.211 3.44-9.055 7.514-10.006 4.073-.996 8.328-.271 12.538.091 4.164.317 8.691.181 12.131-2.173 1.991-1.358 3.53-3.848 2.715-6.112-.905-2.399-4.073-3.169-6.563-2.58-2.489.588-4.707 2.128-7.152 2.942-2.444.815-5.567.725-7.106-1.358-1.449-1.946-.77-4.844.905-6.609 1.63-1.766 4.029-2.626 6.337-3.351 8.148-2.444 17.834-4.346 21.637-11.951 1.176-2.4 1.493-5.5235-.317-7.5155-2.128-2.3089-6.066-1.7203-8.51.2264-2.444 1.9466-3.983 4.7531-5.93 7.1981-1.493 1.856-3.757 3.622-5.975 2.852-2.67-.905-2.987-4.708-1.901-7.334 1.177-2.8067 3.259-5.0703 4.979-7.5602 1.72-2.49 3.169-5.4327 2.716-8.4659-.452-2.9879-3.53-5.7043-6.427-4.7536-3.169 1.0413-3.802 5.1158-4.708 8.3301-.905 3.1238-2.716 6.157-5.567 7.6509-2.852 1.5393-6.88 1.1318-8.827-1.4939-1.81-2.3994-1.358-5.8854 0-8.5564 1.358-2.6711 3.576-4.7989 5.387-7.1983 1.629-2.173 2.942-4.5724 3.892-7.1077 1.041-2.8068 1.63-5.9759.498-8.7374-1.131-2.7616-4.481-4.7536-7.197-3.5313-2.127.9508-3.168 3.4407-3.44 5.7949-.271 2.3541.045 4.7082-.407 7.0171-.498 2.5805-1.992 4.9799-4.119 6.6097-1.856 1.4034-4.934 1.992-6.247.0453-.452-.6791-.543-1.494-.588-2.3089-.226-6.157 4.164-11.3632 7.061-16.8412 1.946-3.667 3.35-7.832 2.988-11.9517-.363-4.1651-2.716-8.2848-6.564-9.9599-3.847-1.6298-9.007-.0905-10.592 3.7576-1.72 4.2103.951 8.7375 2.445 13.0383 1.041 2.8974 1.493 6.1117.679 9.0997-.815 2.9879-3.078 5.659-6.066 6.3833-5.341 1.2676-10.23-4.1197-11.361-9.5071-1.132-5.3873.09-11.0011-.407-16.479-.498-5.4779-3.803-11.5443-9.28-12.0423-5.431-.5433-10.094 6.0664-7.785 11.0011 1.131 2.4447 3.44 4.1197 5.296 6.157 1.856 1.9919 3.259 4.8893 2.127 7.3793-1.312 2.8521-5.522 3.3048-8.147 1.5845-2.626-1.7203-3.938-4.8894-4.708-7.9226-1.041-4.0292-2.263-9.0996-6.337-9.8693-3.304-.6338-6.337 2.4447-7.061 5.7496-.679 3.0332.09 6.3833 2.082 8.828 3.531 4.3461 10.728 6.3381 11.226 11.9065.271 3.0785-2.128 6.1117-5.16 6.7908-3.033.6791-6.337-.9054-7.967-3.5312-1.765-2.8974-2.127-7.2435-5.341-8.3753-3.078-1.0865-6.337 3.0785-4.572 5.8401.86 1.3581 2.444 1.9919 3.757 2.9426 1.313.9055 2.535 2.4447 2.037 3.984-.679 2.1278-3.848 2.0825-5.613.7243-1.765-1.3581-2.897-3.3954-4.843-4.5272-2.399-1.4034-5.794-.7696-7.559 1.4035-2.354 2.9426-1.313 7.5151 1.222 10.2767 2.58 2.7616 6.201 4.165 9.732 5.5232 3.53 1.3581 7.151 2.9426 9.505 5.84 2.354 2.9427 2.852 7.6963.091 10.2763-1.358 1.268-3.305 1.811-5.16 1.902-5.568.362-11.226-2.762-13.896-7.6963-1.494-2.7163-3.305-6.6097-6.337-5.7948-1.63.4527-2.49 2.2636-2.852 3.9386-1.403 6.4735 2.399 13.6265 8.51 16.1625 1.539.633 3.259 1.041 4.662 1.946 1.403.906 2.535 2.626 2.082 4.256-.589 2.173-3.531 2.761-5.613 1.947-2.082-.861-3.621-2.581-5.432-3.894-1.81-1.313-4.345-2.173-6.246-.951-.86.544-1.448 1.494-1.856 2.445-1.539 3.848-.09 8.557 2.988 11.318 3.078 2.762 7.513 3.758 11.632 3.169 2.716-.407 5.568-1.403 8.148-.453 2.535.906 4.119 3.577 4.572 6.248.407 2.671-.091 5.387-.634 8.013h74.279z" fill="url(#a)"/><path d="m394.239 146.332c-.407-2.536 1.63-4.482 3.893-5.705 2.263-1.177 4.843-1.675 7.061-2.852 2.263-1.222 4.255-3.576 3.802-6.066-.362-1.992-2.218-3.486-4.209-3.984-1.992-.498-4.074-.136-6.066.271-1.901.408-4.571.363-4.843-1.539-.091-.543.09-1.132.362-1.63 1.267-2.399 3.938-3.712 6.473-4.708s5.251-1.992 6.925-4.12c1.675-2.127 1.675-5.885-.724-7.107-.905-.453-1.992-.498-3.033-.408-3.983.317-7.649 2.264-11.089 4.256-.86.498-1.901 1.041-2.852.679-1.584-.589-1.448-3.033-.407-4.346 1.674-2.173 4.526-3.033 6.835-4.573 2.263-1.539 3.983-4.8891 2.217-6.9716-.679-.7696-1.674-1.1771-2.67-1.3582-3.485-.5432-6.835 1.494-9.641 3.6671-1.313 1.0417-3.124 2.1277-4.482 1.1767-.362-.271-.633-.679-.814-1.1315-.951-2.2183 0-4.7535.679-7.0624.724-2.3088 1.041-5.161-.679-6.836-1.947-1.9015-5.477-.8602-7.016 1.3581s-1.449 5.2063-1.041 7.8773c.452 2.6711 1.222 5.3425.995 8.0585-.226 2.716-1.765 5.568-4.435 6.202-3.576.906-6.835-2.626-7.922-6.157-1.131-3.531-1.086-7.4244-2.851-10.684-1.766-3.2143-6.699-5.2062-9.144-2.4446-.633.679-.95 1.5845-1.131 2.4899-1.449 7.9227 10.275 13.7627 8.736 21.6397-.951 4.799-7.786 7.199-11.497 3.984-2.988-2.58-3.667-7.56-7.243-9.281-3.621-1.765-8.464 2.083-7.604 6.022.634 2.852 3.44 4.663 6.156 5.885 2.67 1.222 5.658 2.264 7.378 4.618 1.765 2.354 1.267 6.564-1.584 7.334-1.313.317-2.716-.136-4.029.136-2.761.633-3.349 5.251-.769 6.519 2.625 1.313 6.11-.951 8.6.588 2.489 1.54 2.263 3.532.905 6.112h46.758z" fill="#0cd486"/><path d="m349.563 138.862c1.494 2.173 2.399 5.025 1.539 7.47h41.508c-1.403-2.853-2.128-6.112-1.132-9.1.77-2.4 2.535-4.301 4.074-6.293s2.987-4.255 2.987-6.745-2.036-5.161-4.526-4.89c-4.119.453-5.568 7.606-9.687 7.017-2.806-.407-3.575-4.21-2.715-6.881s2.715-5.116 2.67-7.968c-.045-3.078-2.761-5.885-5.839-6.066s-6.065 2.354-6.427 5.432c-.182 1.404.135 2.852.09 4.256-.045 1.403-.679 2.988-1.992 3.486-1.312.498-2.851-.272-3.666-1.404-.815-1.131-1.086-2.58-1.358-3.983-.498-2.536-1.041-5.071-2.308-7.289-1.268-2.219-3.395-4.12-5.93-4.437-3.214-.453-6.428 1.856-7.469 4.889-1.086 3.034-.181 6.565 1.902 9.055 1.493 1.811 3.53 3.078 5.295 4.572 1.811 1.494 3.441 3.441 3.803 5.75s-1.177 5.025-3.531 5.206c-2.625.226-4.436-2.49-5.477-4.889-1.041-2.4-2.263-5.252-4.798-5.84-2.716-.634-5.432 1.992-5.658 4.798-.272 2.807 1.222 5.478 3.078 7.606 1.765 2.083 3.983 3.939 5.567 6.248z" fill="url(#b)"/><g clip-path="url(#z)"><path d="m372 251.735v34.496c0 8.399-31.17 15.204-69.619 15.204s-69.619-6.805-69.619-15.199v-34.496h139.238z" fill="url(#d)"/><path d="m302.381 266.935c-38.449 0-69.619-6.805-69.619-15.2 0-8.394 31.17-15.2 69.619-15.2 38.45 0 69.619 6.806 69.619 15.2 0 8.395-31.169 15.2-69.619 15.2z" fill="url(#f)"/><path d="m302.381 259.955c-28.041 0-50.773-3.892-50.773-8.693s22.732-8.693 50.773-8.693 50.774 3.892 50.774 8.693-22.733 8.693-50.774 8.693z" fill="#002da1"/><path d="m372 204.079v34.495c0 8.395-31.17 15.2-69.619 15.2s-69.619-6.805-69.619-15.2v-34.495z" fill="url(#g)"/><path d="m302.381 219.278c-38.449 0-69.619-6.805-69.619-15.199 0-8.395 31.17-15.2 69.619-15.2 38.45 0 69.619 6.805 69.619 15.2 0 8.394-31.169 15.199-69.619 15.199z" fill="url(#h)"/><path d="m302.381 219.497c-38.449 0-69.619-6.805-69.619-15.2 0-8.394 31.17-15.2 69.619-15.2 38.45 0 69.619 6.806 69.619 15.2 0 8.395-31.169 15.2-69.619 15.2z" fill="url(#i)"/><path d="m302.381 212.129c-28.041 0-50.773-3.892-50.773-8.693s22.732-8.693 50.773-8.693 50.774 3.892 50.774 8.693-22.733 8.693-50.774 8.693z" fill="#002da1"/><path d="m302.381 212.946c-28.041 0-50.773-3.892-50.773-8.693 0-4.8 22.732-8.692 50.773-8.692s50.774 3.892 50.774 8.692c0 4.801-22.733 8.693-50.774 8.693z" fill="#002da1"/><path d="m372 156.417v34.496c0 8.394-31.17 15.2-69.619 15.2s-69.619-6.806-69.619-15.2v-34.496z" fill="url(#j)"/><path d="m302.381 171.617c-38.449 0-69.619-6.805-69.619-15.2 0-8.394 31.17-15.199 69.619-15.199 38.45 0 69.619 6.805 69.619 15.199 0 8.395-31.169 15.2-69.619 15.2z" fill="url(#k)"/><path d="m302.381 164.284c-28.041 0-50.773-3.892-50.773-8.693s22.732-8.693 50.773-8.693 50.774 3.892 50.774 8.693-22.733 8.693-50.774 8.693z" fill="#002da1"/><path d="m372 107.768v34.496c0 8.394-31.17 15.2-69.619 15.2s-69.619-6.806-69.619-15.2v-34.496z" fill="url(#l)"/><path d="m302.381 116.664c-28.041 0-50.773-3.892-50.773-8.693s22.732-8.6929 50.773-8.6929 50.774 3.8919 50.774 8.6929-22.733 8.693-50.774 8.693z" fill="#cdf0ee"/><path d="m218.242 251.906v34.496c0 8.394-31.17 15.2-69.618 15.2-38.449 0-69.6194-6.806-69.6194-15.2v-34.496z" fill="url(#m)"/><path d="m302.381 123.961c-38.449 0-69.619-6.806-69.619-15.2 0-8.395 31.17-15.2 69.619-15.2 38.45 0 69.619 6.805 69.619 15.2 0 8.394-31.169 15.2-69.619 15.2z" fill="url(#n)"/><path d="m353.15 5.01775v103.49225c0 4.798-22.73 8.692-50.774 8.692-28.043 0-50.773-3.894-50.773-8.692v-103.49225z" fill="url(#p)" opacity=".3"/><path d="m148.624 267.106c-38.45 0-69.6194-6.805-69.6194-15.2s31.1694-15.2 69.6194-15.2c38.449 0 69.618 6.805 69.618 15.2s-31.169 15.2-69.618 15.2z" fill="url(#q)"/><path d="m148.624 259.671c-28.042 0-50.7739-3.892-50.7739-8.693 0-4.8 22.7319-8.692 50.7739-8.692 28.041 0 50.773 3.892 50.773 8.692 0 4.801-22.732 8.693-50.773 8.693z" fill="#002da1"/><path d="m218.242 205.26v34.495c0 8.395-31.17 15.2-69.618 15.2-38.449 0-69.6194-6.805-69.6194-15.2v-34.495z" fill="url(#r)"/><path d="m148.624 220.46c-38.45 0-69.6194-6.806-69.6194-15.2 0-8.395 31.1694-15.2 69.6194-15.2 38.449 0 69.618 6.805 69.618 15.2 0 8.394-31.169 15.2-69.618 15.2z" fill="url(#s)"/><path d="m148.624 213.475c-28.042 0-50.7739-3.892-50.7739-8.693s22.7319-8.693 50.7739-8.693c28.041 0 50.773 3.892 50.773 8.693s-22.732 8.693-50.773 8.693z" fill="#002da1"/><path d="m218.242 158.673v34.496c0 8.394-31.17 15.2-69.618 15.2-38.449 0-69.6194-6.806-69.6194-15.2v-34.496z" fill="url(#t)"/><path d="m148.624 173.818c-38.45 0-69.6194-6.805-69.6194-15.2s31.1694-15.2 69.6194-15.2c38.449 0 69.618 6.805 69.618 15.2s-31.169 15.2-69.618 15.2z" fill="url(#u)"/><path d="m148.624 167.552c-28.042 0-50.7739-3.892-50.7739-8.693 0-4.8 22.7319-8.692 50.7739-8.692 28.041 0 50.773 3.892 50.773 8.692 0 4.801-22.732 8.693-50.773 8.693z" fill="#cdf0ee"/><path d="m302.375 117.614c-28.041 0-50.773-3.892-50.773-8.693s22.732-8.693 50.773-8.693c28.042 0 50.774 3.892 50.774 8.693s-22.732 8.693-50.774 8.693z" fill="#cdf0ee"/><path d="m199.392 55.1216v103.4914c0 4.799-22.73 8.693-50.773 8.693s-50.7735-3.894-50.7735-8.693v-103.4914h101.5425z" fill="url(#v)" opacity=".3"/><g fill="#fff"><path d="m158.257 120.37c4.156 1.461 5.341 2.646 6.801 6.801 1.46-4.155 2.645-5.34 6.801-6.801-4.156-1.46-5.341-2.645-6.801-6.8-1.46 4.155-2.645 5.34-6.801 6.8z"/><path d="m142.47 51.3928c3.1 1.0883 3.986 1.9746 5.075 5.0743 1.088-3.0997 1.974-3.986 5.074-5.0743-3.1-1.0883-3.986-1.9746-5.074-5.0742-1.089 3.0996-1.975 3.9859-5.075 5.0742z"/><path d="m286.929 77.8147c3.127 1.0975 4.023 1.993 5.12 5.1202 1.098-3.1272 1.993-4.0227 5.12-5.1202-3.127-1.0975-4.022-1.993-5.12-5.1202-1.097 3.1272-1.993 4.0227-5.12 5.1202z"/><path d="m94.8286 96.308c3.0995 1.0883 3.9858 1.9746 5.0741 5.074 1.0883-3.0994 1.9743-3.9857 5.0743-5.074-3.1-1.0884-3.986-1.9746-5.0743-5.0743-1.0883 3.0997-1.9746 3.9859-5.0741 5.0743z"/><path d="m268.226 6.90838c4.192 1.47406 5.386 2.668 6.86 6.86052 1.474-4.19252 2.668-5.38646 6.861-6.86052-4.193-1.47406-5.387-2.668-6.861-6.8605742-1.474 4.1925742-2.668 5.3865142-6.86 6.8605742z"/><path d="m345.385 33.0787c3.127 1.0975 4.022 1.9929 5.12 5.1201 1.097-3.1272 1.993-4.0226 5.12-5.1201-3.127-1.0976-4.023-1.993-5.12-5.1202-1.098 3.1272-1.993 4.0226-5.12 5.1202z"/><path d="m166.041 195.433c-2.156 0-3.903-1.748-3.903-3.904 0-2.155 1.747-3.903 3.903-3.903s3.903 1.748 3.903 3.903c0 2.156-1.747 3.904-3.903 3.904z"/><path d="m131.206 195.616c-2.155 0-3.903-1.747-3.903-3.903s1.748-3.903 3.903-3.903c2.156 0 3.903 1.747 3.903 3.903s-1.747 3.903-3.903 3.903z"/></g><path d="m162.133 191.529h-27.024" stroke="#fff" stroke-miterlimit="10"/><path d="m166.041 242.281c-2.156 0-3.903-1.747-3.903-3.903s1.747-3.903 3.903-3.903 3.903 1.747 3.903 3.903-1.747 3.903-3.903 3.903z" fill="#fff"/><path d="m131.206 242.281c-2.155 0-3.903-1.747-3.903-3.903s1.748-3.903 3.903-3.903c2.156 0 3.903 1.747 3.903 3.903s-1.747 3.903-3.903 3.903z" fill="#fff"/><path d="m162.133 238.378h-27.024" stroke="#fff" stroke-miterlimit="10"/><path d="m317.796 146.048c-2.155 0-3.903-1.747-3.903-3.903s1.748-3.903 3.903-3.903c2.156 0 3.903 1.747 3.903 3.903s-1.747 3.903-3.903 3.903z" fill="#fff"/><path d="m317.796 240.443c-2.155 0-3.903-1.747-3.903-3.903s1.748-3.903 3.903-3.903c2.156 0 3.903 1.747 3.903 3.903s-1.747 3.903-3.903 3.903z" fill="#fff"/><path d="m282.962 240.443c-2.156 0-3.904-1.747-3.904-3.903s1.748-3.903 3.904-3.903c2.155 0 3.903 1.747 3.903 3.903s-1.748 3.903-3.903 3.903z" fill="#fff"/><path d="m313.888 236.54h-27.023" stroke="#fff" stroke-miterlimit="10"/><path d="m282.962 146.048c-2.156 0-3.904-1.747-3.904-3.903s1.748-3.903 3.904-3.903c2.155 0 3.903 1.747 3.903 3.903s-1.748 3.903-3.903 3.903z" fill="#fff"/><path d="m313.889 142.145h-27.024" stroke="#fff" stroke-miterlimit="10"/><path d="m317.796 192.713c-2.155 0-3.903-1.747-3.903-3.903s1.748-3.903 3.903-3.903c2.156 0 3.903 1.747 3.903 3.903s-1.747 3.903-3.903 3.903z" fill="#fff"/><path d="m282.962 192.713c-2.156 0-3.904-1.747-3.904-3.903s1.748-3.903 3.904-3.903c2.155 0 3.903 1.747 3.903 3.903s-1.748 3.903-3.903 3.903z" fill="#fff"/><path d="m313.888 188.81h-27.023" stroke="#fff" stroke-miterlimit="10"/></g><path d="m568.574 196.782-160.426-59.446-357.0792 96.933-50.9857922 88.395h408.0649922 237.852z" fill="url(#w)"/><path d="m408.148 137.336 28.235 36.785-385.3137 60.148z" fill="url(#x)"/><path d="m436.383 174.121-60.895 148.543h-375.4049922l50.9857922-88.395z" fill="url(#y)"/></svg>