<svg viewBox="0 0 500 200" xmlns="http://www.w3.org/2000/svg">
  <defs>
    <filter id="filter0_d_2104_32097" x="0" y="0" width="1116" height="236" filterUnits="userSpaceOnUse" color-interpolation-filters="sRGB">
      <feFlood flood-opacity="0" result="BackgroundImageFix"></feFlood>
      <feColorMatrix in="SourceAlpha" type="matrix" values="0 0 0 0 0 0 0 0 0 0 0 0 0 0 0 0 0 0 127 0" result="hardAlpha"></feColorMatrix>
      <feMorphology radius="6" operator="erode" in="SourceAlpha" result="effect1_dropShadow_2104_32097"></feMorphology>
      <feOffset dy="6"></feOffset>
      <feGaussianBlur stdDeviation="10"></feGaussianBlur>
      <feColorMatrix type="matrix" values="0 0 0 0 0.0431373 0 0 0 0 0.168627 0 0 0 0 0.619608 0 0 0 0.15 0"></feColorMatrix>
      <feBlend mode="normal" in2="BackgroundImageFix" result="effect1_dropShadow_2104_32097"></feBlend>
      <feBlend mode="normal" in="SourceGraphic" in2="effect1_dropShadow_2104_32097" result="shape"></feBlend>
    </filter>
    <linearGradient id="paint0_linear_2104_32097" x1="739.966" y1="259.717" x2="733.978" y2="180.731" gradientUnits="userSpaceOnUse">
      <stop offset="0.08" stop-color="#002C99"></stop>
      <stop offset="0.22" stop-color="#012379"></stop>
      <stop offset="0.41" stop-color="#031954"></stop>
      <stop offset="0.58" stop-color="#04113A"></stop>
      <stop offset="0.74" stop-color="#050D2A"></stop>
      <stop offset="0.86" stop-color="#050B24"></stop>
    </linearGradient>
    <linearGradient id="paint1_linear_2104_32097" x1="890.966" y1="211.717" x2="884.978" y2="132.731" gradientUnits="userSpaceOnUse">
      <stop offset="0.08" stop-color="#002C99"></stop>
      <stop offset="0.22" stop-color="#012379"></stop>
      <stop offset="0.41" stop-color="#031954"></stop>
      <stop offset="0.58" stop-color="#04113A"></stop>
      <stop offset="0.74" stop-color="#050D2A"></stop>
      <stop offset="0.86" stop-color="#050B24"></stop>
    </linearGradient>
    <linearGradient id="paint2_linear_2104_32097" x1="1030.06" y1="55.4173" x2="1030.06" y2="208.864" gradientUnits="userSpaceOnUse">
      <stop stop-color="#7ADCFD"></stop>
      <stop offset="0.5312" stop-color="#0092FF"></stop>
      <stop offset="1" stop-color="#0071C6"></stop>
    </linearGradient>
    <linearGradient id="paint3_linear_2104_32097" x1="1073.03" y1="286.602" x2="1133.71" y2="106.403" gradientUnits="userSpaceOnUse">
      <stop offset="0.2" stop-color="#0069FF"></stop>
      <stop offset="0.34" stop-color="#0075FF"></stop>
      <stop offset="0.6" stop-color="#0094FF"></stop>
      <stop offset="0.9" stop-color="#00BFFF"></stop>
    </linearGradient>
    <linearGradient id="paint4_linear_2104_32097" x1="1004.57" y1="37.4219" x2="1053.55" y2="37.4219" gradientUnits="userSpaceOnUse">
      <stop offset="0.02" stop-color="#7ADCFD"></stop>
      <stop offset="0.03" stop-color="#79DBFD"></stop>
      <stop offset="0.89" stop-color="#0092FF"></stop>
    </linearGradient>
    <linearGradient id="paint5_linear_2104_32097" x1="1017.6" y1="165.686" x2="1017.6" y2="70.9448" gradientUnits="userSpaceOnUse">
      <stop offset="0.02" stop-color="#7ADCFD"></stop>
      <stop offset="0.03" stop-color="#79DBFD"></stop>
      <stop offset="0.89" stop-color="#0092FF"></stop>
    </linearGradient>
    <linearGradient id="paint6_linear_2104_32097" x1="885.836" y1="146.42" x2="949.631" y2="253.59" gradientUnits="userSpaceOnUse">
      <stop stop-color="#7ADCFD"></stop>
      <stop offset="0.39" stop-color="#32B0FE"></stop>
      <stop offset="0.69" stop-color="#0092FF"></stop>
    </linearGradient>
    <linearGradient id="paint7_linear_2104_32097" x1="913.5" y1="165.5" x2="913.5" y2="282.5" gradientUnits="userSpaceOnUse">
      <stop stop-color="#7ADCFD"></stop>
      <stop offset="1" stop-color="#0069FF"></stop>
    </linearGradient>
    <linearGradient id="paint8_linear_2104_32097" x1="1036.12" y1="197.021" x2="1057.88" y2="202.991" gradientUnits="userSpaceOnUse">
      <stop stop-color="#773200"></stop>
      <stop offset="0.47" stop-color="#642900"></stop>
      <stop offset="0.8" stop-color="#5C2600"></stop>
    </linearGradient>
    <linearGradient id="paint9_linear_2104_32097" x1="1040.72" y1="158.059" x2="1032.37" y2="215.095" gradientUnits="userSpaceOnUse">
      <stop stop-color="#FC720E"></stop>
      <stop offset="0.2" stop-color="#FC581D"></stop>
      <stop offset="0.4" stop-color="#FD432A"></stop>
      <stop offset="0.54" stop-color="#FD3B2E"></stop>
    </linearGradient>
    <linearGradient id="paint10_linear_2104_32097" x1="1087.14" y1="152.262" x2="1054.93" y2="198.985" gradientUnits="userSpaceOnUse">
      <stop offset="0.16" stop-color="#773200"></stop>
      <stop offset="0.43" stop-color="#6F2E00"></stop>
      <stop offset="0.8" stop-color="#5C2600"></stop>
    </linearGradient>
    <linearGradient id="paint11_linear_2104_32097" x1="1105.71" y1="197.192" x2="1045.48" y2="229.535" gradientUnits="userSpaceOnUse">
      <stop stop-color="#FC720E"></stop>
      <stop offset="0.29" stop-color="#FC581D"></stop>
      <stop offset="0.6" stop-color="#FD432A"></stop>
      <stop offset="0.8" stop-color="#FD3B2E"></stop>
    </linearGradient>
    <linearGradient id="paint12_linear_2104_32097" x1="1091.5" y1="207.939" x2="1053.82" y2="229.633" gradientUnits="userSpaceOnUse">
      <stop stop-color="#773200"></stop>
      <stop offset="0.17" stop-color="#6F2E00"></stop>
      <stop offset="0.41" stop-color="#5C2600"></stop>
    </linearGradient>
    <linearGradient id="paint13_linear_2104_32097" x1="1106.09" y1="228.62" x2="1045.26" y2="248.863" gradientUnits="userSpaceOnUse">
      <stop offset="0.08" stop-color="#773200"></stop>
      <stop offset="0.53" stop-color="#642900"></stop>
      <stop offset="0.86" stop-color="#5C2600"></stop>
    </linearGradient>
    <linearGradient id="paint14_linear_2104_32097" x1="1068.25" y1="233.549" x2="1023.35" y2="270.944" gradientUnits="userSpaceOnUse">
      <stop stop-color="#FC720E"></stop>
      <stop offset="0.29" stop-color="#FC581D"></stop>
      <stop offset="0.6" stop-color="#FD432A"></stop>
      <stop offset="0.8" stop-color="#FD3B2E"></stop>
    </linearGradient>
    <linearGradient id="paint15_linear_2104_32097" x1="1007.58" y1="159.313" x2="1024.72" y2="219.479" gradientUnits="userSpaceOnUse">
      <stop stop-color="#773200"></stop>
      <stop offset="0.26" stop-color="#642900"></stop>
      <stop offset="0.44" stop-color="#5C2600"></stop>
    </linearGradient>
    <linearGradient id="paint16_linear_2104_32097" x1="1056.92" y1="190.073" x2="1042.9" y2="233.708" gradientUnits="userSpaceOnUse">
      <stop stop-color="#FC720E"></stop>
      <stop offset="0.29" stop-color="#FC581D"></stop>
      <stop offset="0.6" stop-color="#FD432A"></stop>
      <stop offset="0.81" stop-color="#FD3B2E"></stop>
    </linearGradient>
    <linearGradient id="paint17_linear_2104_32097" x1="1010.26" y1="171.55" x2="1012.89" y2="227.77" gradientUnits="userSpaceOnUse">
      <stop stop-color="#FC720E"></stop>
      <stop offset="0.84" stop-color="#FD3B2E"></stop>
    </linearGradient>
    <linearGradient id="paint18_linear_2104_32097" x1="990.87" y1="201.514" x2="996.96" y2="268.394" gradientUnits="userSpaceOnUse">
      <stop stop-color="#FC720E"></stop>
      <stop offset="0.29" stop-color="#FC581D"></stop>
      <stop offset="0.6" stop-color="#FD432A"></stop>
      <stop offset="0.8" stop-color="#FD3B2E"></stop>
    </linearGradient>
    <linearGradient id="paint19_linear_2104_32097" x1="1032.95" y1="197.269" x2="1035.41" y2="229.8" gradientUnits="userSpaceOnUse">
      <stop stop-color="#773200"></stop>
      <stop offset="0.47" stop-color="#642900"></stop>
      <stop offset="0.8" stop-color="#5C2600"></stop>
    </linearGradient>
    <linearGradient id="paint20_linear_2104_32097" x1="1001.59" y1="205.632" x2="1018.14" y2="255.309" gradientUnits="userSpaceOnUse">
      <stop stop-color="#773200"></stop>
      <stop offset="0.47" stop-color="#642900"></stop>
      <stop offset="0.8" stop-color="#5C2600"></stop>
    </linearGradient>
    <linearGradient id="paint21_linear_2104_32097" x1="1026.92" y1="224.596" x2="1025.61" y2="261.967" gradientUnits="userSpaceOnUse">
      <stop stop-color="#FC720E"></stop>
      <stop offset="0.29" stop-color="#FC581D"></stop>
      <stop offset="0.6" stop-color="#FD432A"></stop>
      <stop offset="0.8" stop-color="#FD3B2E"></stop>
    </linearGradient>
    <linearGradient id="paint22_linear_2104_32097" x1="712.088" y1="100.848" x2="745.959" y2="84.6508" gradientUnits="userSpaceOnUse">
      <stop offset="0.08" stop-color="#4994FF"></stop>
      <stop offset="0.19" stop-color="#60A1FF"></stop>
      <stop offset="0.4" stop-color="#9AC4FF"></stop>
      <stop offset="0.56" stop-color="#C8DFFF"></stop>
    </linearGradient>
    <linearGradient id="paint23_linear_2104_32097" x1="715.546" y1="92.9338" x2="724.399" y2="96.315" gradientUnits="userSpaceOnUse">
      <stop stop-color="#002C9B"></stop>
      <stop offset="0.32" stop-color="#021F6B"></stop>
      <stop offset="0.61" stop-color="#041444"></stop>
      <stop offset="0.85" stop-color="#050D2D"></stop>
      <stop offset="1" stop-color="#050B24"></stop>
    </linearGradient>
    <linearGradient id="paint24_linear_2104_32097" x1="802.696" y1="141.846" x2="818.497" y2="112.527" gradientUnits="userSpaceOnUse">
      <stop offset="0.08" stop-color="#4994FF"></stop>
      <stop offset="0.19" stop-color="#60A1FF"></stop>
      <stop offset="0.4" stop-color="#9AC4FF"></stop>
      <stop offset="0.56" stop-color="#C8DFFF"></stop>
    </linearGradient>
    <linearGradient id="paint25_linear_2104_32097" x1="801.265" y1="134.491" x2="809.135" y2="132.578" gradientUnits="userSpaceOnUse">
      <stop stop-color="#002C9B"></stop>
      <stop offset="0.32" stop-color="#021F6B"></stop>
      <stop offset="0.61" stop-color="#041444"></stop>
      <stop offset="0.85" stop-color="#050D2D"></stop>
      <stop offset="1" stop-color="#050B24"></stop>
    </linearGradient>
    <linearGradient id="paint26_linear_2104_32097" x1="828.853" y1="70.9223" x2="830.426" y2="53.3006" gradientUnits="userSpaceOnUse">
      <stop offset="0.08" stop-color="#4994FF"></stop>
      <stop offset="0.19" stop-color="#60A1FF"></stop>
      <stop offset="0.4" stop-color="#9AC4FF"></stop>
      <stop offset="0.56" stop-color="#C8DFFF"></stop>
    </linearGradient>
    <linearGradient id="paint27_linear_2104_32097" x1="826.312" y1="67.6043" x2="829.531" y2="64.9109" gradientUnits="userSpaceOnUse">
      <stop stop-color="#002C9B"></stop>
      <stop offset="0.32" stop-color="#021F6B"></stop>
      <stop offset="0.61" stop-color="#041444"></stop>
      <stop offset="0.85" stop-color="#050D2D"></stop>
      <stop offset="1" stop-color="#050B24"></stop>
    </linearGradient>
    <linearGradient id="paint28_linear_2104_32097" x1="867.997" y1="208.754" x2="863.29" y2="187.878" gradientUnits="userSpaceOnUse">
      <stop offset="0.07" stop-color="#002C99"></stop>
      <stop offset="0.13" stop-color="#01257F"></stop>
      <stop offset="0.22" stop-color="#031B5E"></stop>
      <stop offset="0.3" stop-color="#041445"></stop>
      <stop offset="0.39" stop-color="#040F32"></stop>
      <stop offset="0.49" stop-color="#050C28"></stop>
      <stop offset="0.6" stop-color="#050B24"></stop>
    </linearGradient>
    <linearGradient id="paint29_linear_2104_32097" x1="879.844" y1="187.329" x2="876.313" y2="171.516" gradientUnits="userSpaceOnUse">
      <stop offset="0.06" stop-color="#CFEAF3"></stop>
      <stop offset="0.23" stop-color="#BBE5F3"></stop>
      <stop offset="0.53" stop-color="#9ADEF4"></stop>
      <stop offset="0.59" stop-color="#94DDF4"></stop>
      <stop offset="0.67" stop-color="#82D9F6"></stop>
      <stop offset="0.77" stop-color="#64D3F8"></stop>
      <stop offset="0.87" stop-color="#3CCBFB"></stop>
      <stop offset="0.98" stop-color="#08C1FE"></stop>
      <stop offset="1" stop-color="#00BFFF"></stop>
    </linearGradient>
    <linearGradient id="paint30_linear_2104_32097" x1="898.064" y1="176.302" x2="899.684" y2="181.337" gradientUnits="userSpaceOnUse">
      <stop offset="0.12" stop-color="#0069FF"></stop>
      <stop offset="0.54" stop-color="#0098FF"></stop>
      <stop offset="0.87" stop-color="#00BFFF"></stop>
    </linearGradient>
    <linearGradient id="paint31_linear_2104_32097" x1="891.575" y1="176.049" x2="892.983" y2="179.111" gradientUnits="userSpaceOnUse">
      <stop offset="0.13" stop-color="#00BFFF"></stop>
      <stop offset="0.43" stop-color="#0098FF"></stop>
      <stop offset="0.81" stop-color="#0069FF"></stop>
    </linearGradient>
    <linearGradient id="paint32_linear_2104_32097" x1="875.208" y1="188.144" x2="876.285" y2="201.876" gradientUnits="userSpaceOnUse">
      <stop offset="0.18" stop-color="#00BFFF"></stop>
      <stop offset="0.32" stop-color="#37CAFB"></stop>
      <stop offset="0.58" stop-color="#9ADEF4"></stop>
      <stop offset="0.66" stop-color="#9FDFF4"></stop>
      <stop offset="0.75" stop-color="#ADE2F4"></stop>
      <stop offset="0.85" stop-color="#C5E8F3"></stop>
      <stop offset="0.88" stop-color="#CFEAF3"></stop>
    </linearGradient>
    <clipPath id="clip0_2104_32097">
      <rect width="1088" height="208" fill="white" transform="translate(14 8)"></rect>
    </clipPath>
    <clipPath id="clip1_2104_32097">
      <path d="M654 8H1102V216H654V8Z" fill="white"></path>
    </clipPath>
  </defs>
  <g clip-path="url(#clip0_2104_32097)" filter="url(#filter0_d_2104_32097)" transform="matrix(1, 0, 0, 1, -602, -16)">
    <g clip-path="url(#clip1_2104_32097)">
      <path d="M825.88 262.16L820.127 235.286C819.992 234.656 819.705 234.068 819.293 233.571C818.88 233.075 818.353 232.684 817.756 232.432L798.589 224.384C798.449 224.324 798.326 224.231 798.231 224.113C798.136 223.994 798.073 223.854 798.046 223.705L798.004 223.464L793.783 199.541C793.635 198.699 793.308 197.897 792.824 197.189C792.34 196.481 791.709 195.884 790.974 195.436L778.389 187.753C778.234 187.656 778.109 187.516 778.032 187.35L769.407 168.06C769.35 167.932 769.265 167.819 769.157 167.73C769.048 167.641 768.921 167.579 768.784 167.547L749.591 163.024C749.41 162.982 749.221 162.996 749.049 163.063C748.876 163.13 748.729 163.248 748.626 163.401V163.401L730.74 189.566L728.114 193.404C728.046 193.504 727.957 193.588 727.855 193.653C727.752 193.718 727.638 193.761 727.518 193.781L726.499 193.958L705.935 197.498C705.188 197.628 704.485 197.939 703.888 198.403C703.292 198.868 702.82 199.471 702.515 200.159L685.454 238.452C685.391 238.594 685.292 238.718 685.167 238.811C685.042 238.904 684.894 238.964 684.739 238.984L665.539 241.491C665.367 241.511 665.205 241.578 665.071 241.685C664.936 241.793 664.835 241.936 664.779 242.098L654.048 273.805C654.001 273.942 653.988 274.088 654.01 274.231C654.032 274.374 654.088 274.51 654.174 274.627C654.259 274.744 654.372 274.839 654.502 274.904C654.632 274.968 654.776 275.002 654.922 275L827.099 273.047C827.234 273.045 827.367 273.013 827.488 272.954C827.609 272.895 827.715 272.811 827.799 272.706C827.884 272.602 827.943 272.48 827.975 272.35C828.006 272.22 828.008 272.085 827.981 271.954L825.88 262.16Z" fill="url(#paint0_linear_2104_32097)"></path>
      <path d="M976.88 214.16L971.127 187.286C970.992 186.656 970.705 186.068 970.293 185.571C969.88 185.075 969.353 184.684 968.756 184.432L949.589 176.384C949.449 176.324 949.326 176.231 949.231 176.113C949.136 175.994 949.073 175.854 949.046 175.705L949.004 175.464L944.783 151.541C944.635 150.699 944.308 149.897 943.824 149.189C943.34 148.481 942.709 147.884 941.974 147.436L929.389 139.753C929.234 139.656 929.109 139.516 929.032 139.35L920.407 120.06C920.35 119.932 920.265 119.819 920.157 119.73C920.048 119.641 919.921 119.579 919.784 119.547L900.591 115.024C900.41 114.982 900.221 114.996 900.049 115.063C899.876 115.13 899.729 115.248 899.626 115.401V115.401L881.74 141.566L879.114 145.404C879.046 145.504 878.957 145.588 878.855 145.653C878.752 145.718 878.638 145.761 878.518 145.781L877.499 145.958L856.935 149.498C856.188 149.628 855.485 149.939 854.888 150.403C854.292 150.868 853.82 151.471 853.515 152.159L836.454 190.452C836.391 190.594 836.292 190.718 836.167 190.811C836.042 190.904 835.894 190.964 835.739 190.984L816.539 193.491C816.367 193.511 816.205 193.578 816.071 193.685C815.936 193.793 815.835 193.936 815.779 194.098L805.048 225.805C805.001 225.942 804.988 226.088 805.01 226.231C805.032 226.374 805.088 226.51 805.174 226.627C805.259 226.744 805.372 226.839 805.502 226.904C805.632 226.968 805.776 227.002 805.922 227L978.099 225.047C978.234 225.045 978.367 225.013 978.488 224.954C978.609 224.895 978.715 224.811 978.799 224.706C978.884 224.602 978.943 224.48 978.975 224.35C979.006 224.22 979.008 224.085 978.981 223.954L976.88 214.16Z" fill="url(#paint1_linear_2104_32097)"></path>
      <path d="M871.76 57.1625C871.262 61.221 870.59 65.2513 870.02 69.2933C869.028 76.2234 868.312 83.3609 869.521 90.4308C870.583 96.6296 873.016 102.824 877.286 107.566C877.603 94.56 879.937 81.776 884.207 69.6755C884.269 69.4988 884.399 69.357 884.568 69.2804C884.738 69.2037 884.933 69.1983 885.113 69.2655C885.293 69.3327 885.442 69.467 885.53 69.6396C885.617 69.8123 885.636 70.0095 885.581 70.189C883.149 77.1276 881.332 84.2937 880.148 91.6062C877.98 104.661 878.227 118.116 880.876 131.303C882.457 138.945 884.946 146.408 888.291 153.526C890.001 151.111 891.264 148.394 892.025 145.498C892.745 142.793 893.276 140.032 893.615 137.236C894.005 134.227 894.366 131.214 894.697 128.196C895.477 121.906 895.862 115.555 895.853 109.181C895.843 108.243 897.283 108.397 897.299 109.331C897.347 113.005 897.195 116.671 896.912 120.321C896.805 121.718 896.701 123.13 896.552 124.506C898.254 123.687 899.859 122.691 901.343 121.532C904.516 119.032 907.111 115.874 908.963 112.256C910.815 108.639 911.884 104.639 912.105 100.51C912.116 100.318 912.202 100.142 912.346 100.02C912.489 99.8979 912.677 99.8407 912.869 99.8606C913.061 99.8806 913.24 99.9761 913.368 100.126C913.496 100.276 913.561 100.468 913.55 100.661C913.274 106.175 911.538 111.449 908.522 115.939C905.506 120.429 901.318 123.974 896.39 126.209C895.965 130.486 895.446 134.743 894.832 138.98C894.012 144.588 892.703 150.299 889.245 154.779C889.176 154.862 889.09 154.927 888.991 154.97C891.39 159.857 894.223 164.531 897.453 168.931C898.69 166.668 900.038 164.462 901.503 162.354C902.008 161.603 902.753 160.531 903.262 159.786C903.336 160.5 903.455 161.21 903.618 161.913C902.876 162.966 902.147 164.025 901.45 165.115C898.006 170.439 895.282 176.222 893.346 182.32C892.956 183.567 892.614 184.822 892.296 186.087C892.004 186.218 891.732 186.39 891.488 186.596C891.127 186.868 890.809 187.186 890.465 187.48C891.034 184.915 891.745 182.39 892.594 179.916C893.748 176.593 895.143 173.369 896.767 170.269C896.653 170.218 896.555 170.135 896.484 170.031C895.462 168.688 893.56 165.876 893.54 165.873C893.163 165.334 892.818 164.772 892.508 164.193C889.542 159.467 886.995 154.5 884.896 149.354C879.796 136.636 877.207 123.142 877.277 109.649C874.499 106.838 872.29 103.515 870.785 99.8799C867.926 93.1931 867.179 86.0502 867.558 79.0157C867.976 71.633 869.416 64.3664 870.34 57.0458C870.419 56.1027 871.871 56.2394 871.76 57.1625Z" fill="#7ADCFD"></path>
      <path d="M911.91 101.117C911.193 100.175 911.345 98.8602 912.249 98.1807C913.154 97.5013 914.468 97.7142 915.185 98.6564C915.902 99.5985 915.751 100.913 914.846 101.593C913.942 102.272 912.627 102.059 911.91 101.117Z" fill="white"></path>
      <path d="M895.281 110.185C894.564 109.243 894.716 107.928 895.62 107.249C896.525 106.569 897.839 106.782 898.556 107.725C899.274 108.667 899.122 109.981 898.217 110.661C897.313 111.34 895.998 111.127 895.281 110.185Z" fill="white"></path>
      <path d="M884.781 70.7534C884.064 69.8112 884.215 68.4966 885.12 67.8172C886.024 67.1378 887.339 67.3507 888.056 68.2929C888.773 69.235 888.621 70.5496 887.717 71.229C886.812 71.9085 885.498 71.6955 884.781 70.7534Z" fill="white"></path>
      <path d="M870.737 58.4531C870.02 57.5109 870.171 56.1963 871.076 55.5169C871.98 54.8374 873.295 55.0504 874.012 55.9926C874.729 56.9347 874.577 58.2493 873.673 58.9287C872.769 59.6082 871.454 59.3952 870.737 58.4531Z" fill="white"></path>
      <path d="M901.328 160.965C900.611 160.022 900.763 158.708 901.667 158.028C902.572 157.349 903.886 157.562 904.603 158.504C905.32 159.446 905.169 160.761 904.264 161.44C903.36 162.12 902.045 161.907 901.328 160.965Z" fill="white"></path>
      <path d="M947.62 38.3602C947.366 40.4284 947.023 42.4823 946.733 44.5421C946.227 48.0738 945.863 51.7111 946.478 55.314C947.02 58.473 948.26 61.6295 950.436 64.0464C950.597 57.4183 951.787 50.9034 953.963 44.7369C953.994 44.6469 954.061 44.5746 954.147 44.5356C954.233 44.4965 954.333 44.4937 954.424 44.528C954.516 44.5622 954.592 44.6307 954.637 44.7186C954.682 44.8066 954.691 44.9071 954.663 44.9986C953.424 48.5346 952.497 52.1865 951.894 55.913C950.789 62.5661 950.915 69.4226 952.265 76.1429C953.071 80.0374 954.34 83.8403 956.044 87.468C956.915 86.2371 957.559 84.8526 957.947 83.3768C958.314 81.9981 958.585 80.5913 958.757 79.1662C958.956 77.6331 959.14 76.0976 959.309 74.5598C959.706 71.3542 959.903 68.1177 959.898 64.8691C959.893 64.3912 960.627 64.4699 960.634 64.9458C960.659 66.8181 960.582 68.6865 960.437 70.5464C960.383 71.2583 960.33 71.978 960.254 72.6788C961.121 72.2619 961.939 71.7541 962.696 71.1635C964.313 69.8897 965.635 68.2803 966.578 66.4366C967.522 64.5928 968.067 62.5548 968.18 60.4506C968.185 60.3527 968.229 60.2627 968.303 60.2006C968.376 60.1385 968.472 60.1094 968.569 60.1195C968.667 60.1297 968.758 60.1784 968.824 60.2549C968.889 60.3313 968.922 60.4293 968.916 60.5273C968.775 63.3375 967.891 66.0249 966.354 68.3131C964.817 70.6014 962.683 72.4079 960.171 73.5469C959.955 75.7267 959.69 77.8961 959.377 80.0552C958.96 82.913 958.292 85.8234 956.53 88.1067C956.495 88.1486 956.451 88.1817 956.401 88.2038C957.623 90.6943 959.067 93.0761 960.713 95.3187C961.343 94.1653 962.03 93.0411 962.777 91.9668C963.035 91.5841 963.414 91.0379 963.674 90.6581C963.711 91.0219 963.772 91.384 963.855 91.7422C963.477 92.2785 963.105 92.8185 962.75 93.3737C960.995 96.0871 959.607 99.0342 958.62 102.141C958.421 102.777 958.247 103.417 958.085 104.061C957.936 104.128 957.798 104.216 957.673 104.321C957.489 104.459 957.327 104.621 957.152 104.771C957.442 103.464 957.804 102.177 958.237 100.917C958.825 99.2231 959.536 97.5801 960.363 96.0003C960.305 95.9743 960.255 95.9321 960.219 95.879C959.698 95.1944 958.729 93.7617 958.719 93.7601C958.527 93.4852 958.351 93.1992 958.193 92.9038C956.682 90.4955 955.383 87.9646 954.314 85.3418C951.715 78.8608 950.395 71.9837 950.431 65.1079C949.016 63.6753 947.89 61.9817 947.123 60.1294C945.666 56.7217 945.285 53.0816 945.478 49.4968C945.691 45.7345 946.425 42.0314 946.896 38.3007C946.936 37.8201 947.676 37.8897 947.62 38.3602Z" fill="#7ADCFD"></path>
      <path d="M968.081 60.7595C967.715 60.2794 967.793 59.6095 968.254 59.2632C968.714 58.917 969.384 59.0255 969.75 59.5056C970.115 59.9858 970.038 60.6557 969.577 61.0019C969.116 61.3482 968.446 61.2397 968.081 60.7595Z" fill="white"></path>
      <path d="M959.607 65.3809C959.241 64.9007 959.319 64.2308 959.779 63.8846C960.24 63.5383 960.91 63.6469 961.276 64.127C961.641 64.6071 961.564 65.277 961.103 65.6233C960.642 65.9695 959.972 65.861 959.607 65.3809Z" fill="white"></path>
      <path d="M954.255 45.2861C953.89 44.806 953.967 44.1361 954.428 43.7899C954.889 43.4436 955.559 43.5521 955.924 44.0323C956.29 44.5124 956.212 45.1823 955.751 45.5286C955.29 45.8748 954.621 45.7663 954.255 45.2861Z" fill="white"></path>
      <path d="M947.098 39.0181C946.733 38.538 946.81 37.868 947.271 37.5218C947.732 37.1755 948.402 37.2841 948.767 37.7642C949.133 38.2443 949.056 38.9142 948.595 39.2605C948.134 39.6067 947.464 39.4982 947.098 39.0181Z" fill="white"></path>
      <path d="M962.688 91.2586C962.323 90.7784 962.4 90.1085 962.861 89.7623C963.322 89.416 963.992 89.5245 964.357 90.0047C964.723 90.4848 964.645 91.1547 964.185 91.501C963.724 91.8472 963.054 91.7387 962.688 91.2586Z" fill="white"></path>
      <path d="M828.003 251.442L864.542 161.942L918.366 149.784L941.076 87.909L980.143 72.6099L1009.26 29.68L1058.23 27L1094.13 107.923L1148.95 127.942L1173.98 231.423L1219.89 246.087L1232.12 329.071L828.003 251.442Z" fill="url(#paint2_linear_2104_32097)"></path>
      <path d="M1094.32 108.031L1036.27 134.343L1145.76 126.525L1094.32 108.031Z" fill="url(#paint3_linear_2104_32097)"></path>
      <path d="M1009.26 29.68L1027.91 47.8492L1058.23 27L1009.26 29.68Z" fill="url(#paint4_linear_2104_32097)"></path>
      <path d="M941.076 87.9095L992.923 118.853C1012.66 130.634 1036.84 132.281 1057.99 123.288L1094.13 107.923L1089.29 97.013L1027.03 103.257L980.143 72.6104L941.076 87.9095Z" fill="url(#paint5_linear_2104_32097)"></path>
      <path d="M918.366 149.784L975.971 273.664L961.979 277.179L864.542 161.942L918.366 149.784Z" fill="url(#paint6_linear_2104_32097)"></path>
      <path d="M975.96 126.921C978.724 128.864 980.345 127.619 980.345 127.619C979.619 126.849 978.662 126.359 977.659 126.243C977.659 126.243 978.922 126.089 979.744 124.507C979.744 124.507 977.576 123.501 975.658 125.871" fill="#002C99"></path>
      <path d="M970.108 123.953C970.108 123.953 971.146 122.441 974.186 123.32C973.226 124.02 972.104 124.47 970.904 124.637" fill="#002C99"></path>
      <path d="M969.253 127.019C969.253 127.019 969.417 128.874 972.203 130.107C971.746 128.942 971.054 127.872 970.178 126.977" fill="#002C99"></path>
      <path d="M977.29 126.634C975.266 127.804 972.638 127.944 970.246 127.431C969.14 127.226 968.062 126.83 967.056 126.261C966.523 125.973 966.069 125.541 965.747 125.015C965.592 124.75 965.511 124.451 965.513 124.154C965.515 123.857 965.601 123.574 965.76 123.339C965.911 123.17 966.1 123.041 966.313 122.961C966.525 122.881 966.757 122.852 966.99 122.876C967.455 122.931 967.914 123.06 968.351 123.259C971.322 124.452 974.213 125.931 977.29 126.634Z" fill="white"></path>
      <path d="M1069.51 129.008C1063.8 128.723 1062.73 125.133 1062.73 125.133C1064.49 124.84 1066.29 125.205 1067.79 126.158C1067.79 126.158 1066.2 124.528 1066.58 121.35C1066.58 121.35 1070.56 122.316 1070.93 127.847" fill="#002C99"></path>
      <path d="M1080.81 130.859C1080.81 130.859 1080.81 127.589 1075.87 125.44C1076.52 127.481 1077.62 129.349 1079.09 130.908" fill="#002C99"></path>
      <path d="M1078.82 136.029C1078.82 136.029 1076.77 138.58 1071.59 137.158C1073.38 135.973 1075.4 135.202 1077.52 134.9" fill="#002C99"></path>
      <path d="M1068.21 126.651C1069.89 130.57 1073.39 133.69 1077.19 135.609C1078.93 136.544 1080.8 137.175 1082.75 137.474C1083.76 137.654 1084.81 137.54 1085.76 137.144C1086.23 136.938 1086.63 136.6 1086.91 136.171C1087.2 135.743 1087.35 135.242 1087.35 134.729C1087.31 134.323 1087.17 133.932 1086.96 133.585C1086.74 133.237 1086.45 132.942 1086.11 132.719C1085.42 132.282 1084.67 131.955 1083.88 131.753C1078.64 130.141 1073.18 129.057 1068.21 126.651Z" fill="white"></path>
      <ellipse cx="913.5" cy="292.5" rx="271.5" ry="111.5" fill="url(#paint7_linear_2104_32097)"></ellipse>
      <path d="M1034.93 252.62L1043.72 254.605C1044.55 214.083 1053.21 175.28 1065.17 147.726L1051.3 144.835C1041.88 169.757 1042.2 182.487 1038.92 201.765C1035.44 222.889 1034.07 239.746 1034.93 252.62Z" fill="url(#paint8_linear_2104_32097)"></path>
      <path d="M1054.83 151.859C1059.01 152.766 1063.05 151.249 1063.84 148.47C1064.64 145.691 1061.9 142.683 1057.71 141.776C1053.52 140.87 1049.48 142.393 1048.68 145.188C1047.88 147.983 1050.64 150.953 1054.83 151.859Z" fill="#FDC9A4"></path>
      <path d="M1017.87 221.426L1034.35 229.336C1042.25 209.022 1045.06 176.915 1048.6 157.551L1030.7 155.209C1030.63 155.453 1020.87 199.679 1017.87 221.426Z" fill="url(#paint9_linear_2104_32097)"></path>
      <path d="M1034.31 254.859L1014.98 239.153C1035.1 212.11 1056.68 197.849 1075.75 156.284L1088.86 161.532C1080.15 191.572 1072.44 196.135 1062.97 213.017C1052.56 231.422 1043.05 245.317 1034.31 254.859Z" fill="url(#paint10_linear_2104_32097)"></path>
      <path d="M1088.6 163.89C1089.72 161.354 1087.57 158.007 1083.8 156.477C1080.02 154.947 1076.03 155.768 1074.91 158.321C1073.79 160.874 1075.94 164.205 1079.71 165.742C1083.48 167.279 1087.46 166.462 1088.6 163.89Z" fill="#FDC9A4"></path>
      <path d="M1023 262.477C1039.63 230.358 1075.78 178.77 1075.9 178.558L1090.41 187.55C1090.41 187.55 1065.22 231.232 1051.27 249.902C1047.83 254.541 1043.36 258.179 1038.36 260.4C1033.36 262.62 1028.03 263.333 1022.99 262.456L1023 262.477Z" fill="#FD3B2E"></path>
      <path d="M1046.47 259.006L1027.98 241.986C1044.76 212.714 1096.15 184.212 1096.15 184.212L1106.03 196.659C1105.88 196.823 1068.7 227.602 1046.47 259.006Z" fill="url(#paint11_linear_2104_32097)"></path>
      <path d="M1105.77 199.377C1107.85 197.424 1107.31 193.01 1104.55 189.525C1101.79 186.04 1097.86 184.786 1095.77 186.739C1093.68 188.692 1094.23 193.108 1096.99 196.593C1099.75 200.078 1103.68 201.321 1105.77 199.377Z" fill="#FDC9A4"></path>
      <path d="M1047.01 258.536C1045.35 258.418 1043.78 257.838 1042.47 256.85C1041.15 255.861 1040.14 254.498 1039.51 252.889C1038.88 251.281 1038.67 249.479 1038.89 247.656C1039.11 245.832 1039.75 244.047 1040.76 242.469C1054.19 221.419 1077.05 193.334 1077.17 193.148L1092.71 202.762C1091.47 205.421 1082.69 226.047 1073.25 243.088C1070.51 248.018 1066.55 252.119 1061.88 254.867C1057.21 257.616 1052.04 258.888 1047.02 258.521L1047.01 258.536Z" fill="url(#paint12_linear_2104_32097)"></path>
      <path d="M1092.31 204.653C1094.05 201.803 1091.86 197.248 1087.43 194.464C1082.99 191.68 1077.99 191.727 1076.25 194.583C1074.5 197.438 1076.7 201.999 1081.13 204.779C1085.57 207.558 1090.57 207.5 1092.31 204.653Z" fill="#FDC9A4"></path>
      <path d="M1030.74 264.717C1034.71 260.963 1067.64 214.498 1099.6 203.57L1107.06 218.77C1106.3 219.282 1076.42 242.692 1058.5 256.911C1054.42 260.15 1049.84 262.518 1045.06 263.863C1040.28 265.209 1035.41 265.503 1030.74 264.728L1030.74 264.717Z" fill="#FD3B2E"></path>
      <path d="M1107.06 221.067C1109.57 219.36 1109.84 214.617 1107.62 210.467C1105.41 206.317 1101.65 204.358 1099.12 206.061C1096.6 207.764 1096.35 212.515 1098.53 216.658C1100.72 220.801 1104.55 222.793 1107.06 221.067Z" fill="#FDC9A4"></path>
      <path d="M1100.05 222.993L1104.83 239.59C1104.06 240.107 1085.39 245.252 1063.8 262.032C1057.36 266.469 1049.99 268.416 1039.68 266.841C1030.39 265.436 1037.38 237.66 1100.05 222.993Z" fill="url(#paint13_linear_2104_32097)"></path>
      <path d="M1023.8 263.245C1041.54 236.181 1074.42 219.969 1076.56 218.14L1087.89 230.137C1078.64 238.335 1069.77 247.032 1061.33 256.189C1058.18 259.682 1054.18 265.955 1047.57 266.541C1040.95 267.128 1027.92 264.136 1023.8 263.245Z" fill="url(#paint14_linear_2104_32097)"></path>
      <path d="M1088.45 231.249C1090.8 228.121 1089.82 223.257 1086.28 220.375C1082.74 217.493 1077.96 217.688 1075.62 220.814C1073.28 223.941 1074.24 228.805 1077.78 231.683C1081.33 234.562 1086.1 234.362 1088.45 231.249Z" fill="#FDC9A4"></path>
      <path d="M1028.98 231.679L1046.24 239.745C1057.26 218.427 1071.11 166.742 1071.26 166.001L1052.4 160.519C1052.33 160.774 1034.91 207.922 1028.98 231.679Z" fill="#FD3B2E"></path>
      <path d="M1070.95 166.786C1072.14 163.293 1068.57 159.155 1062.95 157.548C1057.33 155.941 1051.82 157.462 1050.61 160.952C1049.4 164.442 1053 168.576 1058.61 170.191C1064.22 171.806 1069.75 170.271 1070.95 166.786Z" fill="#FDC9A4"></path>
      <path d="M1019.8 261.218L1028.81 257.357C1029.27 224.943 1021.54 186.444 1011.28 149.393L997.068 155.122C997.822 157.728 1012.56 252.02 1019.8 261.218Z" fill="url(#paint15_linear_2104_32097)"></path>
      <path d="M1001.64 156.95C1005.67 155.241 1008.36 151.842 1007.67 149.341C1006.99 146.84 1003.16 146.23 999.14 147.939C995.12 149.648 992.42 153.046 993.109 155.548C993.799 158.049 997.623 158.659 1001.64 156.95Z" fill="#FDC9A4"></path>
      <path d="M1036.77 162.808C1042.06 163.54 1046.92 161.522 1047.65 158.296C1048.37 155.069 1044.67 151.853 1039.39 151.09C1034.12 150.328 1029.24 152.376 1028.52 155.604C1027.8 158.831 1031.49 162.078 1036.77 162.808Z" fill="#FDC9A4"></path>
      <path d="M1023.21 260.658C1027.39 262.246 1032.15 261.909 1036.5 259.717C1040.84 257.525 1044.43 253.648 1046.53 248.895C1055.36 229.178 1068.92 182.889 1069.01 182.585L1050.09 178.196C1049.95 178.478 1034.76 235.29 1023.21 260.658Z" fill="url(#paint16_linear_2104_32097)"></path>
      <path d="M1068.47 183.771C1069.7 179.878 1066.18 175.528 1060.58 174.119C1054.98 172.71 1049.44 174.744 1048.2 178.664C1046.96 182.585 1050.51 186.909 1056.1 188.322C1061.7 189.735 1067.24 187.692 1068.47 183.771Z" fill="#FDC9A4"></path>
      <path d="M1005.8 244.383L1021.66 247.88C1020.45 229.566 1029.56 161.422 1029.58 161.229L1014.2 160.265C1014.2 160.265 1005.07 219.27 1005.8 244.383Z" fill="#FD3B2E"></path>
      <path d="M1018.89 166.209C1023.42 166.414 1027.42 164.262 1027.82 161.41C1028.23 158.557 1024.89 156.071 1020.35 155.878C1015.82 155.685 1011.82 157.825 1011.41 160.677C1011.01 163.528 1014.36 166.008 1018.89 166.209Z" fill="#FDC9A4"></path>
      <path d="M1014.14 257.926C1020.57 237.002 1013.09 204.316 1017.67 176.889C1017.86 175.674 1018.01 174.856 1018.04 174.59L999.651 173.776C999.585 174.008 999.523 174.542 999.399 175.308C996.377 193.395 1003.37 224.067 1004.66 246.018C1004.84 248.94 1005.83 251.637 1007.52 253.758C1009.21 255.879 1011.51 257.324 1014.12 257.904L1014.14 257.926Z" fill="url(#paint17_linear_2104_32097)"></path>
      <path d="M1005.73 180.558C1011.1 180.795 1015.83 178.342 1016.29 175.087C1016.75 171.832 1012.78 169.004 1007.41 168.766C1002.04 168.529 997.312 170.979 996.855 174.23C996.398 177.481 1000.36 180.316 1005.73 180.558Z" fill="#FDC9A4"></path>
      <path d="M1015.27 258.368L1016.6 258.655C1015.87 253.478 1021.92 233.759 1020.89 228.083C1016.96 207.522 1000.78 188.716 994.756 168.989L978.891 176.72C984.71 195.6 989.54 214.917 993.359 234.586L994.198 237.673C995.63 242.92 998.304 247.556 1001.98 251.163C1005.66 254.769 1010.22 257.234 1015.26 258.334L1015.27 258.368Z" fill="#FD3B2E"></path>
      <path d="M985.438 178.213C989.905 176.1 992.788 172.134 991.906 169.343C991.025 166.551 986.628 166.038 982.186 168.155C977.744 170.273 974.837 174.234 975.718 177.026C976.6 179.817 980.957 180.314 985.438 178.213Z" fill="#FDC9A4"></path>
      <path d="M1013.14 258.742C1007.45 229.678 983.763 187.757 982.834 184.867L967.366 194.153C971.765 200.809 980.669 216.7 988.321 238.627C989.791 242.817 992.107 246.531 995.12 249.527C998.171 252.523 1006.24 257.062 1013.14 258.742Z" fill="url(#paint18_linear_2104_32097)"></path>
      <path d="M974.565 195.683C979.023 193.571 981.732 189.066 980.61 185.632C979.489 182.198 974.979 181.12 970.522 183.232C966.064 185.344 963.358 189.838 964.469 193.281C965.58 196.725 970.112 197.776 974.565 195.683Z" fill="#FDC9A4"></path>
      <path d="M1019.84 260.454L1029.68 263.124C1047.33 262.187 1048.61 181.481 1048.61 181.189L1028.5 182.954C1028.5 182.954 1007.43 255.511 1019.84 260.454Z" fill="url(#paint19_linear_2104_32097)"></path>
      <path d="M1020.57 260.788C1025.21 230.473 1008.92 205.122 1003.86 192.999L987.288 197.069C987.239 197.981 992.341 218.877 996.966 242.698C997.701 246.442 999.383 249.796 1001.84 252.416C1006.63 257.803 1017.07 260.031 1020.57 260.788Z" fill="url(#paint20_linear_2104_32097)"></path>
      <path d="M993.156 202.511C997.878 202.155 1001.83 198.798 1001.99 194.997C1002.15 191.196 998.448 188.393 993.733 188.726C989.017 189.058 985.056 192.439 984.899 196.236C984.741 200.034 988.441 202.856 993.156 202.511Z" fill="#FDC9A4"></path>
      <path d="M1036.63 189.228C1042.56 188.521 1047.37 185.093 1047.37 181.572C1047.37 178.051 1042.57 175.767 1036.64 176.475C1030.72 177.183 1025.91 180.61 1025.9 184.135C1025.89 187.659 1030.71 189.937 1036.63 189.228Z" fill="#FDC9A4"></path>
      <path d="M1033.28 197.886C1027.26 193.585 1016.9 199.092 1016.9 199.092C1016.63 200.025 1018.6 215.345 1012.16 243.191C1011.23 247.231 1011.26 258.789 1021.74 261.399C1041.55 266.337 1038.56 247.347 1033.28 197.886Z" fill="url(#paint21_linear_2104_32097)"></path>
      <path d="M1021.71 205.963C1026.32 206.505 1030.73 203.74 1031.54 199.786C1032.35 195.833 1029.26 192.189 1024.64 191.645C1020.02 191.1 1015.63 193.868 1014.82 197.821C1014.01 201.774 1017.1 205.388 1021.71 205.963Z" fill="#FDC9A4"></path>
      <path d="M1030.53 263.969C1005.49 258.53 1056.19 209.748 1057.69 206.751L1072.03 213.972C1071.67 214.652 1051.62 268.553 1030.53 263.969Z" fill="#FD3B2E"></path>
      <path d="M1071.36 216.241C1073.28 212.633 1071.56 207.988 1067.52 205.872C1063.47 203.756 1058.64 204.958 1056.73 208.569C1054.83 212.18 1056.52 216.821 1060.57 218.937C1064.61 221.053 1069.43 219.848 1071.36 216.241Z" fill="#FDC9A4"></path>
      <path d="M1090.05 189.696C1091.75 186.904 1089.75 182.531 1085.58 179.927C1081.41 177.323 1076.66 177.458 1074.96 180.241C1073.26 183.025 1075.27 187.4 1079.44 190.012C1083.6 192.624 1088.35 192.479 1090.05 189.696Z" fill="#FDC9A4"></path>
      <path d="M1103.33 196.906C1104.5 195.804 1104.22 193.341 1102.72 191.406C1101.21 189.47 1099.04 188.783 1097.87 189.883C1096.7 190.984 1096.99 193.448 1098.49 195.384C1100 197.32 1102.17 198.007 1103.33 196.906Z" fill="white"></path>
      <path d="M1104.76 215.216C1106.02 214.354 1106.17 211.979 1105.09 209.909C1104.02 207.839 1102.16 206.85 1100.9 207.735C1099.65 208.62 1099.5 210.976 1100.56 213.043C1101.62 215.109 1103.51 216.097 1104.76 215.216Z" fill="white"></path>
      <path d="M1023.03 201.083C1025.32 201.337 1027.53 199.933 1027.95 197.944C1028.37 195.954 1026.85 194.131 1024.56 193.876C1022.26 193.621 1020.06 195.025 1019.64 197.015C1019.22 199.005 1020.74 200.809 1023.03 201.083Z" fill="white"></path>
      <path d="M974.198 190.3C976.564 189.168 978.024 186.734 977.45 184.899C976.875 183.064 974.492 182.507 972.122 183.651C969.752 184.795 968.292 187.217 968.864 189.048C969.436 190.878 971.828 191.432 974.198 190.3Z" fill="white"></path>
      <path d="M1004.32 177.287C1007.08 177.388 1009.52 176.093 1009.79 174.398C1010.06 172.703 1008.01 171.246 1005.24 171.143C1002.47 171.04 1000.05 172.337 999.779 174.028C999.509 175.719 1001.55 177.182 1004.32 177.287Z" fill="white"></path>
      <path d="M983.38 175.402C985.611 174.323 987.06 172.322 986.637 170.924C986.215 169.526 984.031 169.281 981.81 170.363C979.589 171.444 978.13 173.443 978.553 174.841C978.976 176.239 981.139 176.479 983.38 175.402Z" fill="white"></path>
      <path d="M994.395 197.495C996.745 197.297 998.728 195.596 998.827 193.685C998.927 191.775 997.096 190.381 994.75 190.568C992.404 190.755 990.417 192.468 990.317 194.378C990.218 196.288 992.056 197.671 994.395 197.495Z" fill="white"></path>
      <path d="M1021 164.645C1023.72 164.751 1026.14 163.426 1026.4 161.691C1026.66 159.955 1024.67 158.466 1021.94 158.364C1019.22 158.261 1016.81 159.587 1016.55 161.322C1016.29 163.058 1018.28 164.543 1021 164.645Z" fill="white"></path>
      <path d="M999.498 154.391C1001.45 153.541 1002.77 151.869 1002.43 150.647C1002.1 149.424 1000.27 149.14 998.311 149.989C996.357 150.839 995.037 152.51 995.376 153.734C995.716 154.957 997.544 155.24 999.498 154.391Z" fill="white"></path>
      <path d="M1036.46 159.341C1039.57 159.763 1042.46 158.524 1042.9 156.604C1043.35 154.684 1041.19 152.763 1038.08 152.341C1034.97 151.919 1032.08 153.158 1031.64 155.079C1031.2 157 1033.36 158.918 1036.46 159.341Z" fill="white"></path>
      <path d="M1036.33 185.092C1039.74 184.655 1042.52 182.665 1042.55 180.595C1042.58 178.525 1039.82 177.242 1036.42 177.68C1033.01 178.118 1030.22 180.126 1030.19 182.177C1030.17 184.227 1032.92 185.528 1036.33 185.092Z" fill="white"></path>
      <path d="M1065.53 182.804C1066.25 180.545 1064.26 178.047 1061.07 177.254C1057.87 176.462 1054.69 177.665 1053.97 179.937C1053.25 182.21 1055.24 184.695 1058.44 185.488C1061.63 186.281 1064.8 185.075 1065.53 182.804Z" fill="white"></path>
      <path d="M1064.35 163.479C1064.99 161.474 1063.22 159.25 1060.38 158.544C1057.53 157.839 1054.7 158.908 1054.05 160.942C1053.4 162.976 1055.18 165.172 1058.02 165.877C1060.87 166.583 1063.68 165.498 1064.35 163.479Z" fill="white"></path>
      <path d="M1057.12 149.327C1059.06 149.739 1060.93 149.011 1061.31 147.717C1061.69 146.424 1060.43 145.013 1058.5 144.603C1056.56 144.193 1054.68 144.923 1054.3 146.232C1053.92 147.542 1055.18 148.916 1057.12 149.327Z" fill="white"></path>
      <path d="M1085.81 162.853C1086.49 161.334 1085.22 159.308 1082.98 158.396C1080.73 157.484 1078.34 158.004 1077.66 159.551C1076.97 161.099 1078.24 163.097 1080.48 164.008C1082.73 164.92 1085.11 164.414 1085.81 162.853Z" fill="white"></path>
      <path d="M1090.2 203.512C1090.88 201.993 1089.62 199.963 1087.37 199.055C1085.12 198.147 1082.73 198.663 1082.04 200.209C1081.36 201.756 1082.63 203.756 1084.88 204.667C1087.12 205.579 1089.5 205.061 1090.2 203.512Z" fill="white"></path>
      <path d="M1085.77 186.725C1086.89 184.888 1085.62 182.04 1082.94 180.353C1080.25 178.665 1077.17 178.78 1076.06 180.609C1074.94 182.439 1076.21 185.294 1078.89 186.982C1081.58 188.67 1084.65 188.557 1085.77 186.725Z" fill="white"></path>
      <path opacity="0.47" d="M1012.2 193.814C1012.8 193.773 1013.38 191.607 1013.5 188.976C1013.61 186.344 1013.22 184.244 1012.62 184.285C1012.02 184.326 1011.44 186.492 1011.32 189.124C1011.21 191.755 1011.6 193.855 1012.2 193.814Z" fill="white"></path>
      <path opacity="0.47" d="M1084.64 173.153C1085.54 171.045 1085.88 169.181 1085.39 168.991C1084.91 168.801 1083.79 170.356 1082.89 172.465C1081.99 174.573 1081.66 176.437 1082.14 176.627C1082.62 176.817 1083.74 175.262 1084.64 173.153Z" fill="white"></path>
      <path opacity="0.47" d="M1044.03 203.502C1044.63 203.463 1045.2 201.294 1045.32 198.658C1045.44 196.022 1045.06 193.918 1044.47 193.957C1043.88 193.996 1043.3 196.165 1043.18 198.801C1043.06 201.437 1043.44 203.542 1044.03 203.502Z" fill="white"></path>
      <path opacity="0.47" d="M1042.24 173.12C1042.73 173.152 1043.38 171.353 1043.7 169.101C1044.01 166.85 1043.87 164.999 1043.38 164.967C1042.89 164.935 1042.24 166.734 1041.92 168.986C1041.61 171.237 1041.75 173.088 1042.24 173.12Z" fill="white"></path>
      <path opacity="0.47" d="M1009.88 159.771C1010.37 159.61 1010.37 158.14 1009.88 156.489C1009.39 154.837 1008.6 153.63 1008.12 153.791C1007.63 153.953 1007.63 155.423 1008.12 157.074C1008.61 158.725 1009.4 159.933 1009.88 159.771Z" fill="white"></path>
      <path d="M729.735 84.862C729.735 84.862 729.158 84.5425 728.246 84.0291C727.802 83.7493 727.271 83.4296 726.7 83.0698C726.146 82.6927 725.528 82.2756 724.899 81.847C724.287 81.3896 723.663 80.9092 723.028 80.4403C722.416 79.9483 721.809 79.4621 721.22 79.016C720.071 78.0604 718.997 77.2484 718.103 76.8558C716.309 75.9496 714.66 77.1733 713.491 78.6881C712.369 80.2602 711.823 82.1748 711.823 82.1748C711.823 82.1748 712.971 82.6928 714.712 83.3631C715.571 83.6638 716.597 83.9809 717.675 84.2804C718.765 84.5338 719.911 84.7639 721.052 84.9421C722.187 85.0801 723.304 85.1779 724.353 85.2185C725.378 85.2361 726.339 85.2138 727.134 85.1751C728.705 85.0229 729.735 84.862 729.735 84.862Z" fill="#050B24"></path>
      <path d="M695.375 78.5068C695.375 78.5068 695.478 79.6752 695.876 81.6194C696.104 82.6028 696.437 83.7815 696.885 85.0978C697.38 86.4139 698.007 87.8617 698.819 89.3891C699.665 90.8933 700.684 92.4657 701.905 94.0313C703.172 95.5391 704.634 97.0343 706.275 98.4422C707.967 99.775 709.837 100.986 711.85 102.018C713.892 102.951 716.066 103.694 718.33 104.16C720.56 104.511 722.772 104.603 724.873 104.448C726.933 104.196 728.872 103.73 730.661 103.116C732.391 102.434 733.978 101.619 735.391 100.713C736.752 99.7793 737.946 98.771 738.973 97.781C739.943 96.7682 740.78 95.7619 741.461 94.8197C742.103 93.872 742.629 92.9939 743.024 92.2606C743.767 90.771 744.12 89.8364 744.12 89.8364C744.12 89.8364 743.417 89.5061 742.252 89.0861C741.675 88.8588 740.989 88.5917 740.216 88.3079C739.461 88.0067 738.619 87.6886 737.714 87.3767C736.832 87.0301 735.875 86.6896 734.866 86.3667C733.863 86.061 732.796 85.7384 731.706 85.3813C730.6 85.0417 729.435 84.7483 728.191 84.513C726.946 84.2086 725.603 83.9681 724.157 83.7856C722.694 83.54 721.179 83.3464 719.635 83.2048C718.074 82.9769 716.478 82.7953 714.888 82.6193C713.28 82.3572 711.679 82.1237 710.112 81.8901C708.539 81.5817 707 81.2961 705.559 81.0157C704.107 80.6779 702.759 80.374 701.525 80.0926C700.298 79.7708 699.202 79.5001 698.292 79.2746C696.476 78.7601 695.375 78.5068 695.375 78.5068Z" fill="url(#paint22_linear_2104_32097)"></path>
      <path d="M688.361 67.3554C688.361 67.3554 687.525 67.1582 686.274 66.8251C685.029 66.4746 683.369 65.9651 681.708 65.421C680.059 64.8308 678.416 64.2118 677.188 63.7173C675.965 63.1939 675.152 62.847 675.152 62.847C675.577 64.2555 676.21 65.6284 676.981 66.9315C677.786 68.2113 678.74 69.4098 679.781 70.5214C680.827 71.5927 681.971 72.5541 683.137 73.4232C684.315 74.2577 685.521 74.9827 686.681 75.6043C689.023 76.7436 691.197 77.498 692.788 77.9503C694.384 78.3393 695.375 78.5068 695.375 78.5068C695.375 78.5068 695.394 77.4702 695.371 75.8177C695.405 74.188 695.495 71.9591 695.538 69.5346C695.62 68.3422 695.684 67.0981 695.737 65.854C695.819 64.6041 695.883 63.3484 695.902 62.1276C695.955 60.9066 695.951 59.7089 695.871 58.5749C695.815 57.4293 695.685 56.3244 695.41 55.3066C695.41 55.3066 694.9 55.96 694.138 56.9602C693.388 57.9948 692.443 59.4221 691.527 60.901C690.657 62.4373 689.845 64.0308 689.263 65.2546C688.709 66.5071 688.361 67.3554 688.361 67.3554Z" fill="#050B24"></path>
      <path d="M731.411 94.406C731.411 94.406 730.399 94.6302 728.868 94.9146C728.097 95.0338 727.17 95.1481 726.174 95.2512C725.161 95.3256 724.073 95.3717 722.973 95.3832C721.873 95.3717 720.745 95.32 719.679 95.2508C718.619 95.1412 717.622 95.014 716.758 94.8918C715.024 94.5727 713.86 94.3255 713.86 94.3255C713.86 94.3255 714.763 90.9637 717.396 89.7636C718.672 89.112 720.324 88.9018 722.451 89.668C723.518 90.0021 724.74 90.5485 726.154 91.376C726.887 91.758 727.678 92.2087 728.532 92.734C729.403 93.2304 730.355 93.7839 731.411 94.406Z" fill="url(#paint23_linear_2104_32097)"></path>
      <path d="M807.177 121.267C807.177 121.267 806.624 121.355 805.746 121.487C805.304 121.531 804.783 121.594 804.214 121.651C803.649 121.686 803.021 121.728 802.379 121.768C801.735 121.778 801.072 121.779 800.407 121.794C799.746 121.781 799.093 121.768 798.47 121.774C797.214 121.727 796.08 121.739 795.273 121.946C793.595 122.279 793.047 124.014 792.97 125.694C792.952 127.389 793.499 129.012 793.499 129.012C793.499 129.012 794.543 128.756 796.07 128.288C796.809 128.036 797.671 127.705 798.561 127.335C799.436 126.926 800.34 126.471 801.214 125.983C802.065 125.47 802.885 124.938 803.629 124.404C804.346 123.866 805 123.334 805.53 122.881C806.543 121.932 807.177 121.267 807.177 121.267Z" fill="#050B24"></path>
      <path d="M780.36 135.29C780.36 135.29 780.995 136.047 782.209 137.184C782.841 137.745 783.64 138.385 784.585 139.06C785.562 139.709 786.694 140.378 787.993 141.004C789.304 141.595 790.767 142.141 792.366 142.574C793.97 142.942 795.702 143.196 797.516 143.294C799.329 143.312 801.206 143.15 803.095 142.786C804.957 142.339 806.818 141.689 808.609 140.798C810.319 139.845 811.892 138.722 813.27 137.487C814.572 136.206 815.688 134.842 816.628 133.456C817.494 132.052 818.198 130.635 818.737 129.247C819.227 127.868 819.566 126.526 819.798 125.287C819.979 124.063 820.072 122.915 820.088 121.894C820.074 120.892 820.014 119.999 819.933 119.278C819.728 117.844 819.521 117.005 819.521 117.005C819.521 117.005 818.875 117.153 817.868 117.486C817.359 117.637 816.756 117.82 816.085 118.037C815.417 118.233 814.682 118.464 813.906 118.733C813.129 118.966 812.303 119.243 811.45 119.56C810.609 119.886 809.716 120.234 808.79 120.57C807.861 120.928 806.915 121.349 805.941 121.854C804.934 122.31 803.89 122.864 802.802 123.513C801.672 124.127 800.531 124.806 799.396 125.536C798.207 126.216 797.016 126.946 795.832 127.677C794.595 128.357 793.375 129.054 792.179 129.733C790.943 130.363 789.741 130.99 788.61 131.568C787.443 132.113 786.365 132.625 785.376 133.092C784.372 133.527 783.485 133.926 782.747 134.258C781.243 134.875 780.36 135.29 780.36 135.29Z" fill="url(#paint24_linear_2104_32097)"></path>
      <path d="M770.129 131.305C770.129 131.305 769.457 131.617 768.431 132.056C767.401 132.481 766.008 133.018 764.598 133.531C763.173 134.005 761.738 134.457 760.651 134.773C759.553 135.065 758.823 135.26 758.823 135.26C759.797 136.011 760.897 136.625 762.059 137.117C763.233 137.575 764.471 137.895 765.727 138.109C766.967 138.292 768.222 138.347 769.448 138.325C770.665 138.272 771.848 138.129 772.95 137.939C775.118 137.473 776.985 136.831 778.303 136.292C779.594 135.705 780.36 135.29 780.36 135.29C780.36 135.29 779.873 134.559 779.059 133.424C778.296 132.273 777.283 130.676 776.142 128.968C775.623 128.095 775.067 127.196 774.503 126.303C773.957 125.391 773.395 124.484 772.819 123.625C772.266 122.748 771.685 121.919 771.083 121.173C770.491 120.407 769.867 119.709 769.187 119.149C769.187 119.149 769.149 119.877 769.105 120.981C769.086 122.103 769.122 123.602 769.203 125.121C769.343 126.655 769.551 128.198 769.739 129.361C769.96 130.529 770.129 131.305 770.129 131.305Z" fill="#050B24"></path>
      <path d="M812.942 127C812.942 127 812.351 127.699 811.43 128.718C810.954 129.215 810.369 129.791 809.731 130.397C809.066 130.993 808.336 131.609 807.582 132.207C806.816 132.789 806.011 133.359 805.241 133.883C804.455 134.375 803.705 134.822 803.049 135.201C801.696 135.91 800.772 136.363 800.772 136.363C800.772 136.363 799.773 133.542 801.014 131.295C801.581 130.158 802.622 129.125 804.462 128.516C805.361 128.176 806.47 127.899 807.846 127.715C808.537 127.588 809.301 127.477 810.145 127.383C810.987 127.261 811.912 127.134 812.942 127Z" fill="url(#paint25_linear_2104_32097)"></path>
      <path d="M825.822 59.8569C825.822 59.8569 825.578 60.0162 825.189 60.2658C824.988 60.3803 824.753 60.5207 824.494 60.668C824.231 60.8041 823.939 60.9566 823.641 61.111C823.334 61.2515 823.015 61.3912 822.699 61.5383C822.378 61.6705 822.06 61.8017 821.763 61.9355C821.147 62.1761 820.604 62.4203 820.268 62.6917C819.546 63.208 819.719 64.1767 820.106 65.0193C820.525 65.8568 821.197 66.5405 821.197 66.5405C821.197 66.5405 821.634 66.1954 822.25 65.644C822.542 65.3647 822.873 65.0211 823.208 64.652C823.526 64.2672 823.845 63.8533 824.143 63.4293C824.423 62.9981 824.683 62.5644 824.906 62.1452C825.115 61.73 825.296 61.3311 825.436 60.9967C825.684 60.3171 825.822 59.8569 825.822 59.8569Z" fill="#050B24"></path>
      <path d="M816.46 72.389C816.46 72.389 816.956 72.6281 817.827 72.9325C818.272 73.0756 818.818 73.2229 819.442 73.356C820.076 73.4702 820.789 73.5617 821.571 73.5968C822.35 73.6122 823.192 73.5732 824.07 73.4501C824.933 73.2944 825.831 73.0555 826.727 72.7227C827.604 72.3508 828.465 71.8767 829.282 71.3009C830.065 70.6898 830.796 69.979 831.432 69.1644C832.015 68.3364 832.488 67.4535 832.839 66.5564C833.142 65.6525 833.335 64.7473 833.438 63.8677C833.501 62.9953 833.482 62.1504 833.392 61.3543C833.279 60.5726 833.104 59.8416 832.903 59.1832C832.682 58.543 832.437 57.9585 832.188 57.453C831.928 56.9626 831.675 56.536 831.454 56.1982C830.994 55.5359 830.683 55.1665 830.683 55.1665C830.683 55.1665 830.41 55.375 830.009 55.7507C829.803 55.932 829.559 56.1486 829.291 56.3965C829.019 56.6332 828.724 56.9012 828.418 57.1966C828.103 57.4743 827.776 57.7841 827.446 58.1193C827.123 58.4562 826.782 58.8151 826.422 59.1751C826.065 59.5463 825.716 59.9522 825.375 60.405C825.006 60.8412 824.643 61.3327 824.284 61.8806C823.895 62.4204 823.518 62.9938 823.156 63.5915C822.755 64.1756 822.367 64.7849 821.982 65.3932C821.558 65.988 821.147 66.5872 820.743 67.1723C820.307 67.7419 819.888 68.3028 819.49 68.8249C819.066 69.3379 818.676 69.8167 818.319 70.2537C817.945 70.6787 817.619 71.0618 817.348 71.3802C816.781 71.9995 816.46 72.389 816.46 72.389Z" fill="url(#paint26_linear_2104_32097)"></path>
      <path d="M810.537 72.5778C810.537 72.5778 810.292 72.8724 809.909 73.3041C809.521 73.7293 808.986 74.2862 808.438 74.8348C807.872 75.3677 807.296 75.8913 806.853 76.275C806.399 76.6495 806.097 76.8989 806.097 76.8989C806.754 77.0634 807.438 77.1346 808.121 77.1326C808.801 77.1109 809.477 77.0085 810.135 76.85C810.777 76.6795 811.394 76.4427 811.978 76.1744C812.55 75.8931 813.083 75.5739 813.565 75.2488C814.49 74.5643 815.226 73.8563 815.724 73.314C816.197 72.7543 816.461 72.389 816.461 72.389C816.461 72.389 816.042 72.1319 815.365 71.7441C814.708 71.3382 813.818 70.7655 812.839 70.165C812.369 69.8447 811.875 69.5191 811.379 69.1983C810.886 68.8643 810.388 68.5359 809.894 68.2348C809.407 67.9195 808.919 67.6333 808.441 67.3929C807.964 67.1404 807.488 66.9282 807.02 66.7958C807.02 66.7958 807.185 67.1616 807.442 67.714C807.716 68.2699 808.111 68.9997 808.532 69.7301C808.987 70.4554 809.475 71.1708 809.859 71.7036C810.26 72.2314 810.537 72.5778 810.537 72.5778Z" fill="#050B24"></path>
      <path d="M830.039 61.466C830.039 61.466 829.931 61.9342 829.745 62.629C829.641 62.9732 829.505 63.3799 829.351 63.8122C829.181 64.2447 828.986 64.701 828.774 65.1538C828.552 65.6011 828.308 66.0506 828.07 66.47C827.817 66.8774 827.568 67.2546 827.348 67.5789C826.877 68.2119 826.546 68.6288 826.546 68.6288C826.546 68.6288 825.355 67.4508 825.386 66.0849C825.372 65.4061 825.612 64.6796 826.343 63.9932C826.689 63.6371 827.153 63.2681 827.769 62.8885C828.069 62.6806 828.408 62.4655 828.79 62.2422C829.164 62.005 829.577 61.7485 830.039 61.466Z" fill="url(#paint27_linear_2104_32097)"></path>
      <path d="M897.279 198.065C897.504 201.908 883.459 205.86 868.85 206.973C854.24 208.087 838.224 206.197 838.002 202.354C837.78 198.511 853.426 194.169 868.039 193.059C882.651 191.949 897.051 194.229 897.279 198.065Z" fill="url(#paint28_linear_2104_32097)"></path>
      <path d="M863.883 191.976L851.709 200.914C851.709 200.914 860.12 202.943 866.968 196.938C866.968 196.938 883.1 202.847 891.693 199.945C900.286 197.043 899.804 189.067 899.804 189.067L902.376 187.733C902.915 187.454 903.34 186.996 903.578 186.438C903.815 185.879 903.851 185.256 903.679 184.674L902.96 182.253L906.622 179.644C906.829 179.496 906.98 179.282 907.05 179.037C907.12 178.792 907.106 178.531 907.009 178.295C906.912 178.06 906.739 177.864 906.516 177.739C906.294 177.615 906.036 177.569 905.785 177.609L896.541 179.113L895.84 178.048C895.572 177.642 895.162 177.352 894.69 177.233C894.219 177.115 893.72 177.178 893.293 177.409L890.369 178.974L884.172 174.528C883.589 174.106 882.865 173.927 882.153 174.027C881.441 174.128 880.795 174.501 880.352 175.068L877.049 179.255C873.253 184.069 868.824 188.347 863.883 191.976V191.976Z" fill="url(#paint29_linear_2104_32097)"></path>
      <path d="M896.556 179.11L900.424 186.462L899.137 178.69L896.556 179.11Z" fill="url(#paint30_linear_2104_32097)"></path>
      <path d="M890.368 178.974L893.051 183.062L892.258 177.955L890.368 178.974Z" fill="url(#paint31_linear_2104_32097)"></path>
      <path d="M883.767 187.832L851.709 200.914C851.709 200.914 860.12 202.943 866.968 196.938C866.968 196.938 883.1 202.847 891.693 199.945C900.286 197.043 899.804 189.067 899.804 189.067C899.804 189.067 890.788 190.799 883.767 187.832Z" fill="url(#paint32_linear_2104_32097)"></path>
      <path d="M883.776 187.817C884.977 188.4 886.145 189.052 887.318 189.669C888.491 190.287 889.624 191 890.773 191.673L897.664 195.724L897.649 195.752L890.649 191.889C889.485 191.244 888.312 190.614 887.163 189.938C886.015 189.262 884.876 188.573 883.767 187.839L883.776 187.817Z" fill="#0069FF"></path>
      <path d="M883.782 187.823C884.446 188.808 885.057 189.827 885.669 190.843C886.28 191.858 886.836 192.905 887.41 193.93C888.565 196.003 889.712 198.079 890.853 200.158L890.825 200.173C889.608 198.14 888.399 196.1 887.197 194.054C886.58 193.035 885.962 192.022 885.403 190.966C884.844 189.91 884.267 188.885 883.754 187.811L883.782 187.823Z" fill="#0069FF"></path>
      <path d="M883.78 187.842C882.937 188.811 882.047 189.734 881.164 190.664C880.281 191.593 879.343 192.467 878.426 193.362C876.598 195.159 874.763 196.949 872.921 198.732L872.899 198.71C874.677 196.857 876.462 195.017 878.253 193.189C879.145 192.263 880.025 191.337 880.945 190.445C881.865 189.552 882.798 188.666 883.758 187.82L883.78 187.842Z" fill="#0069FF"></path>
      <path d="M883.782 187.835C883.668 188.9 883.489 189.956 883.316 191.012C883.143 192.068 882.899 193.112 882.68 194.158C882.25 196.256 881.812 198.35 881.365 200.442H881.334C881.696 198.332 882.064 196.224 882.436 194.118C882.622 193.065 882.791 192.006 883.011 190.96C883.23 189.913 883.464 188.869 883.752 187.835H883.782Z" fill="#0069FF"></path>
      <path d="M883.773 187.845C881.137 189.018 878.472 190.129 875.81 191.241L871.797 192.877L867.783 194.486L851.712 200.927V200.899L867.693 194.258L871.692 192.596L875.706 190.96C878.386 189.895 881.066 188.827 883.773 187.817V187.845Z" fill="#0069FF"></path>
      <path d="M986.064 190.214C979.675 189.945 978.496 186.571 978.496 186.571C981.991 186.166 984.167 187.533 984.167 187.533C984.167 187.533 982.361 186.018 982.813 183.015C982.813 183.015 987.278 183.92 987.689 189.12" fill="#002C99"></path>
      <path d="M998.729 191.964C998.729 191.964 998.729 188.893 993.189 186.894C993.922 188.811 995.156 190.566 996.801 192.033" fill="#002C99"></path>
      <path d="M996.494 196.823C996.494 196.823 994.205 199.22 988.394 197.883C990.394 196.769 992.667 196.045 995.045 195.763" fill="#002C99"></path>
      <path d="M984.637 188.01C986.511 191.692 990.439 194.623 994.697 196.425C996.64 197.306 998.749 197.9 1000.93 198.183C1002.07 198.35 1003.24 198.241 1004.31 197.868C1004.84 197.677 1005.29 197.36 1005.62 196.957C1005.94 196.553 1006.11 196.081 1006.12 195.596C1006.06 195.214 1005.91 194.846 1005.67 194.519C1005.43 194.191 1005.11 193.913 1004.72 193.702C1003.95 193.29 1003.11 192.983 1002.22 192.794C996.295 191.29 990.177 190.271 984.637 188.01Z" fill="white"></path>
    </g>
  </g>
</svg>
