<svg fill="none" height="20" viewBox="0 0 36 20" width="36" xmlns="http://www.w3.org/2000/svg"><path d="m23.8234 15.5388c-4.1912 0-7.5887-3.3334-7.5887-7.44577 0-4.11292 3.3975-7.447766 7.5887-7.447766 4.192 0 7.591 3.334846 7.591 7.447766 0 4.11237-3.399 7.44577-7.591 7.44577zm5.5724 3.7944c-3.6477 0-6.6044-2.9002-6.6044-6.4811 0-3.57932 2.9567-6.48008 6.6044-6.48008 3.6475 0 6.6042 2.90076 6.6042 6.48008 0 3.5809-2.9564 6.4811-6.6042 6.4811zm-11.048 0c-3.6462 0-6.6044-2.9002-6.6044-6.4811 0-3.57932 2.9582-6.48008 6.6044-6.48008 3.6475 0 6.606 2.90076 6.606 6.48008-.0003 3.5809-2.9585 6.4811-6.606 6.4811zm0 .0214v-5.1602h11.0253v5.1602zm-10.78361-3.9572h-6.41288c-.287831 0-.502871-.2128-.502871-.4953v-.7304c0-.2822.21504-.4948.502871-.4948h6.38938c.28783 0 .50491.2126.50491.4948v.7304c.02324.26-.21708.4953-.48141.4953zm9.67981 0h-6.3893c-.2876 0-.5047-.2128-.5047-.4953v-.7304c0-.2822.2168-.4948.5047-.4948h6.3896c.2878 0 .5046.2126.5046.4948v.7304c-.0002.26-.217.4953-.5049.4953zm6.8443 3.9572h-17.72369c-.48141 0-.88799-.3975-.88799-.8714 0-.4711.40658-.872.88799-.872h17.72369c.4799 0 .8885.4009.8885.872 0 .4741-.4086.8714-.8885.8714zm-5.4761-7.9165h-17.723693c-.481413 0-.888507-.4007-.888507-.8712 0-.4727.406839-.87203.888507-.87203h17.723693c.4811 0 .8885.39933.8885.87203 0 .4703-.4071.8712-.8885.8712zm4.7566-3.95906h-17.72541c-.47988 0-.88851-.4009-.88851-.87173s.40863-.87174.88851-.87174h17.72541c.4799 0 .8886.40091.8886.87174s-.3859.87173-.8886.87173zm1.704-3.9593h-17.72391c-.48141 0-.8885-.39886-.8885-.87173 0-.47058.40709-.87174.8885-.87174h17.72391c.4814 0 .8885.40091.8885.87174 0 .47287-.4071.87173-.8885.87173z" fill="#0069ff"/></svg>