<svg fill="none" height="240" viewBox="0 0 416 240" width="416" xmlns="http://www.w3.org/2000/svg" xmlns:xlink="http://www.w3.org/1999/xlink"><clipPath id="a"><path d="m0 0h416v240h-416z"/></clipPath><g clip-path="url(#a)"><path d="m0 0h416v240h-416z" fill="#0069ff"/><path d="m578.17-133.456c-13.787 12.354-25.384 27.765-33.325 44.2823-7.94 16.5176-11.868 33.4003-11.287 48.5126.398 10.0306-1.194 20.8968-4.686 31.97646-3.491 11.07961-8.812 22.15494-15.659 32.59174-6.847 10.4369-15.085 20.0303-24.243 28.2309-9.157 8.2006-19.054 14.8474-29.123 19.5596-10.069 4.7158-19.964 11.3645-29.119 19.5656-9.156 8.2012-17.392 17.7938-24.238 28.2298-6.847 10.436-12.168 21.509-15.661 32.588-3.493 11.078-5.088 21.944-4.694 31.975.397 10.031-1.195 20.897-4.686 31.977-3.492 11.079-8.813 22.155-15.66 32.592-6.847 10.436-15.085 20.03-24.243 28.231-9.157 8.2-19.054 14.847-29.123 19.559-10.067 4.719-19.96 11.37-29.114 19.572-9.153 8.201-17.388 17.794-24.234 28.228-6.845 10.435-12.167 21.507-15.661 32.584-3.495 11.077-5.093 21.943-4.703 31.975.397 10.03-1.195 20.897-4.686 31.976-3.491 11.08-8.813 22.155-15.66 32.592s-15.085 20.03-24.242 28.231c-9.158 8.2-19.055 14.847-29.124 19.559-10.067 4.72-19.959 11.371-29.112 19.574-9.153 8.202-17.386 17.794-24.23 28.229l-79.5881-40.438c6.8321-10.445 15.0631-20.046 24.2184-28.251 9.1553-8.204 19.0536-14.85 29.1237-19.552 10.0676-4.718 19.961-11.367 29.116-19.569 9.154-8.201 17.39-17.794 24.236-28.229s12.168-21.508 15.661-32.586c3.494-11.078 5.09-21.943 4.699-31.975-.387-10.032 1.212-20.897 4.707-31.974s8.817-22.148 15.662-32.582 15.079-20.026 24.232-28.228 19.044-14.853 29.111-19.574c10.067-4.718 19.961-11.367 29.116-19.569 9.154-8.201 17.39-17.794 24.236-28.229s12.168-21.508 15.661-32.586c3.494-11.078 5.09-21.943 4.699-31.975-.4-10.03 1.191-20.897 4.681-31.977 3.491-11.08 8.812-22.1563 15.66-32.5938 6.847-10.4374 15.086-20.0312 24.244-28.2315 9.159-8.2004 19.056-14.8461 29.127-19.5565 10.067-4.7176 19.961-11.3671 29.116-19.5686 9.154-8.20147 17.39-17.79406 24.236-28.2292 6.846-10.435 12.167-21.508 15.661-32.5859 3.493-11.0779 5.09-21.9433 4.699-31.9751-.403-9.9922 1.189-20.8224 4.682-31.8634l.064-.096c5.26-16.682 14.624-33.225 26.907-47.534s26.932-25.741 42.093-32.848c20.328-9.538 39.514-26.734 53.338-47.805 13.823-21.071 21.152-44.291 20.373-64.554-.399-10.03 1.192-20.896 4.682-31.977 3.491-11.08 8.812-22.156 15.659-32.593 6.848-10.438 15.087-20.031 24.245-28.232 9.158-8.2 19.056-14.846 29.126-19.556l21.419-10.049c16.083-7.532 31.568-19.922 44.258-35.413s21.942-33.295 26.442-50.889c5.721-22.411 15.954-45.139 29.887-66.376 13.932-21.237 31.181-40.4 50.375-55.966l51.794-41.977-36.551 55.714c-11.772 17.963-20.921 37.02-26.925 56.083-6.003 19.063-8.744 37.759-8.064 55.02l.776 21.925c.583 15.112-3.348 31.997-11.296 48.513-7.948 16.517-19.555 31.923-33.349 44.264-.959.861-1.919 1.701-2.891 2.512-8.35 7.087-17.247 12.872-26.275 17.083-10.068 4.717-19.962 11.367-29.116 19.569-9.155 8.201-17.391 17.794-24.236 28.229-6.846 10.435-12.168 21.508-15.662 32.586-3.493 11.077-5.09 21.943-4.698 31.975.389 10.032-1.209 20.897-4.703 31.974s-8.816 22.15-15.662 32.584c-6.845 10.435-15.08 20.027-24.234 28.229-9.153 8.201-19.046 14.852-29.113 19.571l-.063.097c-10.049 4.683-19.93 11.29-29.083 19.444z" fill="#4994ff"/><path d="m261.081 279.771c21.742 21.742 42.483 1.055 64.225 22.797l-192.196 164.79-435.111-435.11 192.197-164.79c21.7421 21.742 1.055 42.4834 22.7967 64.2253 21.7419 21.7419 42.4836 1.0545 64.2255 22.7964 21.74194 21.7419 1.0546 42.48375 22.7964812 64.2257 21.7419188 21.7419 42.4837188 1.0545 64.2256188 22.7964s1.0545 42.4837 22.7964 64.2252c21.7423 21.742 42.4833 1.055 64.2253 22.797s1.055 42.484 22.797 64.225c21.742 21.742 42.483 1.055 64.225 22.797s1.055 42.484 22.797 64.225z" fill="#002c9b"/><path d="m488.115-69.6745c-8.269 17.5253-10.433 36.8103-6.219 55.4158s14.618 35.6957 29.895 49.1089c10.156 8.8975 18.214 19.4669 23.712 31.1028s8.328 24.1098 8.328 36.707c0 12.598-2.83 25.072-8.328 36.708s-13.556 22.205-23.712 31.103c-10.152 8.9-18.205 19.47-23.7 31.106-5.494 11.635-8.323 24.108-8.323 36.704s2.829 25.069 8.323 36.704c5.495 11.636 13.548 22.206 23.7 31.106 10.156 8.898 18.214 19.467 23.712 31.103s8.328 24.11 8.328 36.707c0 12.598-2.83 25.072-8.328 36.708s-13.556 22.205-23.712 31.103c-10.146 8.902-18.195 19.473-23.686 31.109-5.492 11.635-8.318 24.106-8.318 36.701s2.826 25.066 8.318 36.701c5.491 11.635 13.54 22.206 23.686 31.109 10.156 8.898 18.214 19.467 23.712 31.103s8.328 24.11 8.328 36.707c0 12.598-2.83 25.072-8.328 36.708s-13.556 22.205-23.712 31.103c-10.145 8.902-18.193 19.474-23.683 31.109-5.489 11.635-8.314 24.107-8.311 36.701h-154.452c-.029-12.598 2.783-25.076 8.274-36.714 5.491-11.639 13.553-22.208 23.719-31.096 10.149-8.902 18.2-19.472 23.693-31.108 5.493-11.635 8.321-24.107 8.321-36.703 0-12.595-2.828-25.067-8.321-36.703-5.493-11.635-13.544-22.205-23.693-31.107-10.143-8.904-18.189-19.475-23.679-31.11s-8.316-24.106-8.316-36.7 2.826-25.065 8.316-36.7 13.536-22.206 23.679-31.11c10.149-8.902 18.2-19.472 23.693-31.108 5.493-11.635 8.321-24.107 8.321-36.703 0-12.595-2.828-25.067-8.321-36.703-5.493-11.635-13.544-22.205-23.693-31.107-10.159-8.896-18.219-19.465-23.719-31.101s-8.331-24.111-8.331-36.709 2.831-25.073 8.331-36.709 13.56-22.205 23.719-31.101c10.149-8.902 18.2-19.472 23.693-31.108 5.493-11.635 8.321-24.107 8.321-36.703 0-12.5951-2.828-25.067-8.321-36.7024s-13.544-22.206-23.693-31.1074c-10.126-8.8608-18.15-19.3971-23.609-30.999v-.11621c-8.273-17.52149-10.44-36.80459-6.225-55.40779 4.214-18.6033 14.62-35.6901 29.901-49.0972 20.48-17.985 31.985-42.377 31.985-67.811 0-25.433-11.505-49.825-31.985-67.81-10.16-8.896-18.22-19.465-23.72-31.101-5.499-11.636-8.33-24.111-8.33-36.709s2.831-25.073 8.33-36.709c5.5-11.636 13.56-22.205 23.72-31.101l21.579-18.948c16.216-14.217 26.923-32.556 30.603-52.417 3.679-19.86.143-40.233-10.105-58.23-13.074-22.921-19.881-48.202-19.881-73.836s6.807-50.916 19.881-73.836l35.303-61.823v67.248c.017 21.676 4.897 43.136 14.362 63.155s23.329 38.204 40.8 53.517l22.064 19.491c15.279 13.413 25.679 30.506 29.882 49.114s2.02 37.893-6.273 55.411c-.573 1.22-1.169 2.422-1.809 3.603-5.386 10.256-12.813 19.586-21.932 27.551-10.149 8.901-18.2 19.472-23.693 31.107-5.493 11.636-8.32 24.107-8.32 36.703 0 12.595 2.827 25.067 8.32 36.703 5.493 11.635 13.544 22.206 23.693 31.107 10.146 8.903 18.195 19.474 23.686 31.109 5.492 11.635 8.318 24.107 8.318 36.701 0 12.595-2.826 25.067-8.318 36.702-5.491 11.635-13.54 22.206-23.686 31.109v.116c-10.153 8.862-18.227 19.3874-23.764 30.9795z" fill="#92bfff"/><rect fill="#f3f5f9" height="80" rx="8" width="80" x="102.5" y="80"/><g clip-rule="evenodd" fill="#0069ff" fill-rule="evenodd"><path d="m142.533 144v-9.295c9.875 0 17.468-9.75 13.7-20.128-1.37-3.821-4.452-6.9-8.277-8.268-10.39-3.764-20.151 3.877-20.151 13.685h-9.305c0-15.681 15.185-27.9408 31.625-22.8088 7.193 2.2238 12.901 7.9828 15.185 15.1678 5.137 16.479-7.079 31.647-22.777 31.647z"/><path d="m142.532 134.763h-9.248v-9.238h9.248z"/><path d="m133.283 141.889h-7.136v-7.127h7.136z"/><path d="m126.151 134.762h-5.994v-5.93h5.937v5.93z"/></g><path d="m217.773 139h-11.83v-34.909h12.068c3.466 0 6.444.699 8.932 2.097 2.5 1.386 4.421 3.38 5.762 5.982 1.34 2.603 2.011 5.716 2.011 9.341 0 3.637-.676 6.762-2.028 9.375-1.341 2.614-3.279 4.62-5.813 6.017-2.523 1.398-5.557 2.097-9.102 2.097zm-5.506-5.472h5.199c2.432 0 4.46-.443 6.085-1.329 1.625-.898 2.847-2.233 3.665-4.006.818-1.784 1.227-4.011 1.227-6.682 0-2.67-.409-4.886-1.227-6.647-.818-1.773-2.028-3.097-3.631-3.972-1.591-.886-3.568-1.33-5.932-1.33h-5.386zm37.605 5.983c-2.557 0-4.773-.562-6.648-1.687s-3.329-2.699-4.363-4.722c-1.023-2.022-1.534-4.386-1.534-7.091 0-2.704.511-5.074 1.534-7.108 1.034-2.034 2.488-3.613 4.363-4.738s4.091-1.688 6.648-1.688 4.773.563 6.648 1.688 3.324 2.704 4.346 4.738c1.035 2.034 1.552 4.404 1.552 7.108 0 2.705-.517 5.069-1.552 7.091-1.022 2.023-2.471 3.597-4.346 4.722s-4.091 1.687-6.648 1.687zm.034-4.943c1.387 0 2.546-.381 3.478-1.142.931-.773 1.625-1.807 2.079-3.102.466-1.296.699-2.739.699-4.33 0-1.602-.233-3.051-.699-4.346-.454-1.307-1.148-2.347-2.079-3.12-.932-.772-2.091-1.159-3.478-1.159-1.42 0-2.602.387-3.545 1.159-.932.773-1.631 1.813-2.097 3.12-.454 1.295-.682 2.744-.682 4.346 0 1.591.228 3.034.682 4.33.466 1.295 1.165 2.329 2.097 3.102.943.761 2.125 1.142 3.545 1.142zm27.169 4.943c-2.613 0-4.858-.573-6.733-1.721-1.863-1.148-3.301-2.733-4.312-4.756-1-2.034-1.5-4.375-1.5-7.023 0-2.659.511-5.005 1.534-7.039 1.023-2.046 2.466-3.637 4.329-4.773 1.875-1.148 4.091-1.722 6.648-1.722 2.125 0 4.006.392 5.642 1.176 1.648.773 2.96 1.87 3.938 3.29.977 1.409 1.534 3.057 1.67 4.943h-5.898c-.238-1.261-.806-2.312-1.704-3.153-.886-.852-2.074-1.278-3.563-1.278-1.261 0-2.369.34-3.323 1.022-.955.671-1.699 1.637-2.233 2.898-.523 1.261-.784 2.773-.784 4.534 0 1.784.261 3.318.784 4.602.522 1.273 1.255 2.256 2.198 2.949.955.682 2.074 1.023 3.358 1.023.91 0 1.722-.171 2.438-.511.727-.353 1.335-.858 1.824-1.517.488-.66.824-1.461 1.005-2.404h5.898c-.148 1.852-.693 3.494-1.636 4.926-.943 1.421-2.227 2.534-3.852 3.341-1.625.796-3.535 1.193-5.728 1.193zm34.976-19.772-5.625.613c-.159-.568-.437-1.102-.835-1.602-.386-.5-.909-.903-1.568-1.21s-1.466-.46-2.421-.46c-1.284 0-2.363.278-3.238.835-.864.557-1.29 1.278-1.279 2.165-.011.761.267 1.38.835 1.858.58.477 1.535.869 2.864 1.176l4.466.954c2.477.534 4.318 1.381 5.523 2.54 1.216 1.159 1.829 2.676 1.841 4.551-.012 1.648-.495 3.102-1.449 4.364-.943 1.25-2.256 2.227-3.938 2.932-1.682.704-3.613 1.056-5.795 1.056-3.205 0-5.784-.67-7.739-2.011-1.954-1.352-3.119-3.233-3.494-5.642l6.017-.58c.273 1.182.852 2.074 1.739 2.677.886.602 2.039.903 3.46.903 1.466 0 2.642-.301 3.528-.903.898-.603 1.347-1.347 1.347-2.233 0-.75-.29-1.37-.87-1.858-.568-.489-1.454-.864-2.659-1.125l-4.466-.938c-2.511-.523-4.369-1.403-5.573-2.642-1.205-1.25-1.802-2.829-1.79-4.739-.012-1.613.426-3.011 1.312-4.193.898-1.193 2.142-2.113 3.733-2.761 1.603-.659 3.449-.989 5.54-.989 3.068 0 5.483.654 7.244 1.961 1.773 1.306 2.87 3.073 3.29 5.301z" fill="#fff"/></g></svg>