<svg fill="none" height="312" viewBox="0 0 264 312" width="264" xmlns="http://www.w3.org/2000/svg" xmlns:xlink="http://www.w3.org/1999/xlink"><clipPath id="a"><path d="m0 0h264v312h-264z"/></clipPath><g clip-path="url(#a)" fill="#002c9b"><path d="m256.206 308.267c-19.123-14.492-52.746-46.736-63.126-100.253-10.976-56.16-28.711-76.577-58.184-110.4966l-.227-.2194c-29.54-33.9579-75.7778-50.4761-76.2139-50.6393l-.4525 1.2431c.4744.0969 46.4084 16.5284 75.6554 50.2285l.227.2195c29.313 33.7382 46.981 54.1162 57.845 109.8592 10.493 53.935 44.408 86.437 63.664 101.005z"/><path d="m112.049 77.0718s-31.5347-3.2507-42.5266 14.563c-11.0302 17.8802 14.1497 30.9132 42.5266-14.563z"/><path d="m112.803 78.2132s11.265-36.5058-.611-52.8319c-11.877-16.32607-21.7097-2.3567-21.0484 5.9899s7.9028 30.404 21.6594 46.842z"/><path d="m145.836 110.562s-17.116-1.74-36.22 6.7c-19.1036 8.439-14.9555 20.392-11.1105 22.612 3.8445 2.22 15.2655 9.079 47.3305-29.312z"/><path d="m145.568 111.025s25.392-23.9246 25.005-39.6353c-.387-15.7106-7.406-17.6389-11.788-14.9477-4.344 2.6249-10.501 10.8401-13.048 26.2732-2.441 15.4049-.169 28.3098-.169 28.3098z"/><path d="m180.613 165.151s-21.131-7.952-45.422 4.573c-24.29 12.525-7.489 29.66 17.715 16.777 19.368-9.969 27.707-21.35 27.707-21.35z"/><path d="m179.77 165.995s41.736-23.604 42.793-39.366c1.123-15.724-20.091-6.998-30.611 11.531-10.521 18.528-12.182 27.835-12.182 27.835z"/><path d="m195.697 219.703s-16.101-7.171-26.596-7.213c-15.262-.05-30.393 3.958-27.423 12.133s15.658 12.226 31.629 7.375c15.932-4.784 22.39-12.295 22.39-12.295z"/><path d="m194.555 220.459s26.376-7.869 33.596-12.108c7.182-4.172 13.209-9.1 8.858-16.568-4.351-7.467-12.243-7.422-23.211 5.45-10.967 12.872-19.243 23.226-19.243 23.226z"/><path d="m221.144 272.537s-29.493-5.258-41.56 11.05 10.962 30.312 41.56-11.05z"/><path d="m220.715 273.44s39.825-17.539 40.257-29.768c.497-12.191-28.579-9.597-40.257 29.768z"/><path d="m58.0968 48.0441s3.2482-19.0987-5.5227-33.4548c-8.771-14.356141-21.4483-18.57799-25.6345-9.49017-4.1861 9.08777 31.1572 42.94497 31.1572 42.94497z"/><path d="m58.0945 48.0444s-10.2109-18.9045-36.4884-25.1375c-26.27743-6.2331-40.7992 31.9326 36.4884 25.1375z"/></g></svg> 
