<svg fill="none" height="296" viewBox="0 0 288 296" width="288" xmlns="http://www.w3.org/2000/svg"><path d="m89.2506 169.752c1-4.24 1.93-8.19 3-11.88.914-3.344 1.4869-6.771 1.71-10.23l.81-12.11c.6877-10.177 2.913-20.19 6.6004-29.7l4.44-11.6003.29-.12c6.596-2.7073 13.742-3.8082 20.848-3.2119 7.106.5964 13.968 2.8729 20.022 6.6419l-9.08 19.9403c-5.981 13.111-14.7 24.789-25.57 34.25-5.293 4.572-9.012 10.695-10.63 17.5-.25 1-.49 2.07-.72 3.13-2.7504 12.38-2.2104 20.92 1.56 24.7 5.32 5.32 18.4 2.43 27.06.52l1.17-.26c20.49-4.5 50 .6 75.13 13l-5.31 10.77c-18.73-9.23-46.78-16.54-67.25-12l-1.15.25c-11.22 2.48-28.17 6.22-38.1404-3.75-7.03-7.09-8.63-18.79-4.79-35.84z" fill="#00bfff"/><g fill="#7bdeff"><path d="m133.061 128.731 2-5.12 4.82-13.53c4.776-13.024 7.224-26.7872 7.23-40.6597v-21.19l7.76-.6301c6.012-.5099 12.057-.5099 18.07 0l7.09.6001v10.17c-.04 20.5112-8.089 40.196-22.43 54.8597l-5.07 5.89c-3.531 4.106-6.338 8.783-8.3 13.83v.08c-6 15.42-6.54 28.45-1.61 38.75 8.64 18 32.16 25.47 47.72 30.39 2.34.74 4.55 1.44 6.46 2.1l-3.92 11.34c-1.76-.61-3.9-1.28-6.16-2-16.47-5.2-44-13.92-54.92-36.65-6.39-13.36-6-29.6 1.26-48.23z"/><path d="m94.2009 86.7997s3.47-4.19 4.16-5.31c8.5501-13.69 7.8001-24.08 7.8001-35.49v-13.22l6.39-3.24c3.575-1.8217 7.286-3.363 11.1-4.61l9-3 3.19 11.3c1.483 5.2731 1.719 10.819.69 16.1992s-3.296 10.4473-6.62 14.8008c0 0-8.61 10.48-18.51 21.19-19.7602 21.3703-19.5801 27.6603-15.5701 46.4003l1.0699 5.07-11.7599 2.4c-.35-1.72-.71-3.37-1-5-4.33-20.12-9.89-27.06 10.06-47.4903z"/><path d="m51.5992 4.49012 2.6-.90999c9.9614-3.460629 20.8022-3.439479 30.75.06l2.41.84999c7.9765 19.76988 8.453 41.77328 1.34 61.86998l-1.11 3.14c-4.1139 11.605-4.6159 24.1841-1.44 36.0799 8 29.9 19.9198 53.36 33.6398 63.93 10.2 7.86 89.33 37.94 144.28 65.83 20.43 10.37 20.23 29.56 20.38 57h-15.87c0-24.38-.68-37.74-17.93-46.71-57.77-30-127.87-54.6-139.71-63.74-28.3898-16.49-33.5798-44-39.2398-85.1099-1.3597-6.0345-3.6361-11.825-6.75-17.17l-4.4-7.56c-11.4767-20.5589-14.6777-44.7219-8.95-67.55998z"/><path d="m8.54047 81.9883 6.08003.54c6.0248.5205 11.8975 2.1727 17.31 4.87l6.38 3.18-7.55 15.3397c-11.74 30.31 5 47.15 9.85 50.83 8.39 5.53 14.18 8.28 27.81 10.73 77.4195 12.6 137.5395 42.45 140.0595 43.92l-12.52 7.75c-8-3.53-47.52-26.19-129.0995-39.74-2.65-.36-22.41-3.43-38.35-16.81l-.45-.4c-3.1716-2.71-6.0415-5.754-8.56-9.08-2.3326-2.822-4.5092-5.77-6.52-8.83-11.18002-16.93-18.04004-43.7-4.44003-62.2997z"/></g><path d="m55.3108 7.22837c0-1.86 6.31-3.46 14.15-3.57s14.22 1.30001 14.25 3.15001-6.31 3.45002-14.15 3.57002-14.22-1.30003-14.25-3.15003z" fill="#606"/><path d="m10.0316 84.6803c-.10998.47 5.51 2.35 12.57 4.2s12.89 3 13.07 2.49-5.52-3.37-12.59-5.22-12.92-1.92-13.05-1.47z" fill="#606"/><path d="m148.411 50.3305c0 .22 6.81.83 15.28.83s15.27-.61 15.27-.83-6.82-1.35-15.27-1.35-15.28 1.14-15.28 1.35z" fill="#606"/><path d="m107.412 34.3218c.08.19 5.93-1.22 12.73-4s12-5.75 11.9-5.95-6.32 1.45-13.12 4.19-11.57 5.55-11.51 5.76z" fill="#606"/><path d="m188.26 152.228c4.26-4.38 7.76-8.33 10.6-11.8 2.093-2.561 3.228-5.772 3.21-9.08v-4.12c-.007-4.834 1.326-9.577 3.85-13.7l4.79-7.83 1.17-.18c5.961-.968 12.074-.241 17.64 2.1l1 .41c1.234 4.926 1.016 10.103-.629 14.907s-4.646 9.028-8.641 12.163l-5.69 4.45c-1.311 1.022-2.497 2.197-3.53 3.5-3 3.72-9.74 12-15.13 17.56-12.75 13.11-8.28 34.92 4.54 48.67 1.12 1.18-2.07-1.34-2.09.29s-1.3-.92-2.45.23c-1.161 1.077-2.701 1.651-4.284 1.596-1.583-.054-3.081-.732-4.166-1.886-17.5-18.59-17.55-39.46-.19-57.28z" fill="#7bdeff"/><path d="m172.15 112.858c.428-1.375.762-2.779 1-4.2l3.45-18.9496c1.157-6.9172 3.895-13.4742 8-19.16l2.28-3.15c5.912-.0037 11.639 2.0585 16.19 5.83l.58.48c.008 6.5397-1.39 13.0046-4.099 18.9569-2.708 5.9524-6.665 11.2527-11.601 15.5427l-1.25 1.07c-1.091.937-1.939 2.124-2.47 3.46-7.26 18.23.08 28.42.45 28.91 8.32 11.09 10.07 20.4 5.22 27.68-.453.672-1.044 1.24-1.734 1.666-.689.426-1.462.7-2.266.804-.797.108-1.609.043-2.38-.19-.767-.235-1.476-.631-2.08-1.16-1.027-.92-1.687-2.181-1.86-3.549-.173-1.369.154-2.754.92-3.901 2.29-3.58-1.39-9.89-4.9-14.57-1.24-1.7-10.64-14.05-3.45-35.57z" fill="#7bdeff"/><path d="m214.999 212.82c.25-9.37 6.11-19.08 16.08-26.65 1.61-1.22 3.69-2.65 6.09-4.3 5.91-4 14.68-10.06 21.2-16.68 1.641-1.674 2.885-3.694 3.642-5.913.756-2.219 1.005-4.579.728-6.907v-.24c-.887-7.423.297-14.947 3.42-21.74l.91-2 .36-.1c6.195-1.648 12.774-1.038 18.56 1.72 1.21 10-.78 19.29-6.58 27.52l-6.87 10.27c-2.61 6.57-19 17.36-28.55 23.94-2.28 1.56-4.25 2.91-5.63 4-7 5.35-11.18 11.7-11.33 17.4-.08 1.344.15 2.689.67 3.93.955 1.61 2.164 3.056 3.58 4.28 1.18 1 .68 1.36.86 2.89.175 1.225-.043 2.474-.624 3.567-.58 1.093-1.493 1.973-2.606 2.513-.83.41-1.744.623-2.67.62-1.418.004-2.791-.499-3.87-1.42-2.426-2.032-4.353-4.595-5.63-7.491-1.278-2.896-1.874-6.046-1.74-9.209z" fill="#7bdeff"/><path d="m239.931 171.02c-6.75-5.58-10.14-14.49-9.6-24.63v-.22c.107-.921.004-1.854-.3-2.73-2.793-8.38-1.6-16.274 3.58-23.68l3.56-5.08 5 .63c1.756.221 3.491.579 5.19 1.07l5.56 1.63-.4 7.68c-.329 6.101-2.591 11.94-6.46 16.67l-2.69 3.28c-.768.91-1.18 2.068-1.16 3.26.08 7.54 3.54 11.39 5.33 12.87 2.068 1.823 3.692 4.094 4.751 6.64 1.058 2.545 1.523 5.298 1.359 8.05-.2 5.52-2.56 10.28-6.46 13.06-1.014.717-2.227 1.101-3.47 1.1-.825-.013-1.641-.19-2.397-.521-.757-.331-1.441-.809-2.011-1.406-.571-.598-1.017-1.303-1.312-2.074-.296-.771-.435-1.594-.41-2.419.02-.905.272-1.79.73-2.57.46-.77-2.66 3.9-1.88 3.44s3.17.16 3.24-1.79c.08-.91-.64-1.62-.93-2.48 1.76-1.07 4.95-6.06 1.18-9.78z" fill="#7bdeff"/><path d="m194.409 73.8114c-4.18-1.56-7.31-3.5099-7-4.3499s4-.2701 8.17 1.2899 7.32 3.5 7 4.34-3.99.27-8.17-1.28z" fill="#606"/><path d="m220.56 109.442c-4.67-.66-8.37-1.73-8.26-2.38s4-.64 8.66 0 8.37 1.73 8.26 2.38-3.99.66-8.66 0z" fill="#606"/><path d="m276.41 131.922c-4.38-.38-7.9-1.3-7.85-2s3.63-1 8-.64 7.9 1.29 7.85 2-3.59 1.02-8 .64z" fill="#606"/></svg>