<svg fill="none" height="240" viewBox="0 0 416 240" width="416" xmlns="http://www.w3.org/2000/svg" xmlns:xlink="http://www.w3.org/1999/xlink"><clipPath id="a"><path d="m0 0h416v240h-416z"/></clipPath><clipPath id="b"><path d="m0 0h201.184v168.832h-201.184z" transform="matrix(.8660254 .5 -.5 .8660254 261.724 -97)"/></clipPath><clipPath id="c"><path d="m0 0h235.715v235.715h-235.715z" transform="matrix(.8660254 -.5 .5 .8660254 -96.0858 32.125)"/></clipPath><g clip-path="url(#a)"><path d="m0 0h416v240h-416z" fill="#c6e3ff"/><path d="m-81.1626 464.489c-46.7374 46.738-65.0864 28.505-111.8234 75.242l187.06541 128.152 935.32859-935.329-187.065-128.151c-46.738 46.737-28.505 65.086-75.243 111.823-46.737 46.738-65.086 28.505-111.823 75.242s-28.505 65.087-75.242 111.8241c-46.737 46.7373-65.087 28.5048-111.824 75.2421-46.737 46.7371-28.505 65.0865-75.242 111.8237-46.737 46.7371-65.087 28.5051-111.824 75.2421s-28.505 65.086-75.242 111.824c-46.737 46.737-65.0864 28.504-111.82357 75.242-46.73723 46.737-28.50483 65.086-75.24203 111.823z" fill="#92bfff"/><g clip-path="url(#b)" clip-rule="evenodd" fill-rule="evenodd"><path d="m249.087-75.1118c6.956-12.0485 22.476-16.2073 34.525-9.251l63.914 36.9005c12.048 6.9562 16.207 22.4768 9.251 34.5253l-5.561 9.63083-8.755-5.05487 5.56-9.63076c4.165-7.2131 1.663-16.5508-5.55-20.7153l-63.914-36.9005c-7.213-4.1644-16.551-1.6624-20.715 5.5507l-26.791 46.403c-4.164 7.2131-1.662 16.55068 5.551 20.71517l14.884 8.59326-9.569 16.57277 26.142-7.0044 16.697 9.6401-5.055 8.7553-13.071-7.5464-45.671 12.2377 16.717-28.95465-6.129-3.53841c-12.049-6.95621-16.207-22.47684-9.251-34.52534z" fill="#005dff"/><path d="m351.216-3.30559-20.725 35.89669c-6.956 12.0485-22.477 16.2072-34.526 9.251l-15.759-9.0988 5.055-8.7552 15.759 9.0987c7.213 4.1645 16.551 1.6625 20.716-5.5506l20.724-35.89665z" fill="#005dff"/><path d="m328.045-9.67738c-7.213-4.16452-16.551-1.66252-20.715 5.55062l-26.791 46.40296c-4.164 7.2131-1.662 16.5508 5.551 20.7153l33.332 19.2444 7.005 26.1411 9.568-16.5728 14.884 8.5928c7.213 4.165 16.551 1.663 20.715-5.5502l26.791-46.403c4.164-7.2131 1.662-16.5507-5.551-20.7152zm-29.47.49576c6.956-12.04848 22.477-16.20728 34.525-9.25108l64.789 37.406c12.049 6.9562 16.207 22.4769 9.251 34.5254l-26.791 46.403c-6.956 12.0483-22.476 16.2073-34.525 9.2513l-6.129-3.539-16.717 28.955-12.237-45.6716-29.706-17.1507c-12.049-6.9562-16.207-22.4768-9.251-34.5253z" fill="#120078"/></g><g clip-path="url(#c)"><path clip-rule="evenodd" d="m28.4017 17.0036c-14.1608 8.7406-25.18282 23.0188-29.86052 40.4762-4.84888 18.0962-1.96725 36.8343 6.86742 52.1362l-9.15403 5.285c-10.19167-17.6521-13.52067-39.2677-7.92337-60.157 5.38156-20.0843 18.08406-36.591 34.5185-46.73509z" fill="#120078" fill-rule="evenodd"/><path clip-rule="evenodd" d="m131.265 93.0921c4.614-18.6122 1.7-37.3656-7.119-52.6404l9.154-5.2851c10.2 17.6669 13.499 39.2485 8.212 60.5219l-.012.0466-.012.0465c-5.807 21.6704-20.47 39.2784-38.896 49.2624l-5.036-9.293c15.96-8.648 28.674-23.921 33.709-42.6589z" fill="#120078" fill-rule="evenodd"/><path d="m82.8798 106.388s-44.5109.067-55.6096-19.1564c-5.2851-9.154-2.1899-20.7053 6.9641-25.9904 9.1541-5.285 20.7053-2.1899 25.9904 6.9642-5.2851-9.1541-2.1899-20.7054 6.9641-25.9904 9.1541-5.2851 20.4411-2.6477 25.9904 6.9641 12.0138 18.6949-10.2994 57.2089-10.2994 57.2089z" fill="#c6e3ff"/><g clip-rule="evenodd" fill-rule="evenodd"><path d="m36.8769 65.8182c-6.6262 3.8256-8.8553 12.1446-5.0297 18.7708 2.021 3.5003 5.8085 6.5006 11.0438 8.9632 5.1849 2.4389 11.3172 4.1272 17.3358 5.2748 5.9883 1.1417 11.6764 1.713 15.8815 1.998 1.4137.096 2.6531.158 3.6721.2.4706-.9 1.031-1.9995 1.6482-3.2645 1.8403-3.7717 4.1573-8.9586 6.1035-14.6709 1.9569-5.7438 3.4709-11.8233 3.8321-17.4249.3643-5.6479-.4753-10.2738-2.6311-13.6285l-.068-.1058-.0629-.1089c-4.0418-7.0005-12.0604-8.9039-18.7708-5.0296-6.6262 3.8256-8.8553 12.1446-5.0297 18.7708l-9.154 5.2851c-3.8256-6.6262-12.1446-8.8553-18.7708-5.0296zm15.7547-10.7647c-6.6344-2.6035-14.3463-2.2539-21.0398 1.6106-11.6818 6.7446-15.6431 21.5281-8.8986 33.21 3.5284 6.1114 9.4668 10.3119 15.6987 13.2429 6.2825 2.955 13.3588 4.854 19.8553 6.093 6.5268 1.245 12.6601 1.857 17.1475 2.161 2.2498.152 4.1006.228 5.3985.265.6493.019 1.1611.028 1.5164.033.1777.002.3163.003.4134.004h.1143.0333.0106c.0015 0 .0065 0-.0014-5.285l.0079 5.285 3.0408-.005 1.5243-2.631-4.573-2.649c4.573 2.649 4.5722 2.651 4.573 2.649l.0033-.005.0054-.01.0167-.029.057-.099c.0483-.085.1167-.206.2037-.361.1738-.311.4217-.759.7296-1.331.6156-1.143 1.473-2.784 2.4599-4.807 1.9681-4.0334 4.4786-9.6434 6.6091-15.8965 2.1196-6.2215 3.9315-13.2758 4.3745-20.1535.438-6.791-.425-13.945-4.2184-19.9164-7.0801-12.1349-21.5839-15.4669-33.1473-8.7907-6.6935 3.8645-10.8523 10.3683-11.9147 17.4156z" fill="#120078"/><path d="m9.06379-16.3798c-22.86889 13.78494-40.69359 36.2932-48.06409 63.8-7.5491 28.1737-2.9525 56.3168 10.2523 80.1988l-9.2503 5.114c-14.4192-26.078-19.5255-57.0219-11.2119-88.0485 8.1053-30.2496 27.6982-54.9757 52.81718-70.1171z" fill="#120078"/><path d="m168.556 102.648c7.77-28.9972 4.213-54.0841-9.605-78.0178l9.154-5.2851c15.25 26.4134 19.141 54.3921 10.661 86.0389-8.501 31.725-29.055 57.038-55.733 71.801l-5.118-9.249c24.198-13.39 42.892-36.368 50.641-65.288z" fill="#120078"/><path d="m-40.5815 128.069 43.15497-23.364 2.57113 4.454c8.8347 15.302 23.6215 27.166 41.7178 32.015 17.5117 4.692 36.1046 2.439 50.7055-5.428l4.3961-2.369 25.663 41.766-4.704 2.716c-25.8991 14.953-57.6038 19.828-88.5914 11.525l-.0601-.017c-31.94562-8.963-57.2426-29.498-72.2681-56.63zm14.5332 4.152c13.8817 22.37 35.78047 39.274 63.1457 46.961 26.3213 7.044 53.1742 3.644 75.7626-7.881l-14.7656-24.03c-16.227 7.341-35.6588 9.019-53.9678 4.113-19.1301-5.126-35.04452-17.039-45.41685-32.567z" fill="#0069ff"/><path d="m13.3063-19.4017 14.2633 24.70483c17.1555-9.16575 36.9826-12.59912 57.5952-7.07599l.0464.01243.0462.01328c19.1616 5.50945 34.8066 16.93115 45.1666 32.30735l23.471-14.4349c-13.792-21.39789-35.414-37.87-61.8343-44.9575-27.5751-7.0341-55.4506-3.0988-78.7544 9.4305zm-9.95911-6.4908c26.55731-15.9718 59.18731-21.3895 91.35901-13.1735l.0603.0154c30.9875 8.3031 56.0075 28.3771 70.9605 54.2765l2.57 4.4517-41.433 25.481-2.717-4.7059c-8.8-15.2411-23.301-26.7071-41.7643-32.02797-19.3312-5.16559-37.9387-1.25437-53.9948 8.58767l-4.6261 2.8357-24.86355-43.065z" fill="#0069ff"/></g></g><path d="m338.38 315.619c-1.721 0-2.868-.574-4.015-1.721l-30.973-30.399-12.619 24.09c-1.147 2.294-3.441 3.441-5.735 2.868-2.295 0-4.015-1.721-5.163-4.015l-36.708-101.522c-.574-2.295 0-4.589 1.147-5.736 1.721-1.721 4.015-2.294 5.736-1.147l101.522 36.708c2.294.574 3.441 2.868 4.015 5.163 0 2.294-1.147 4.588-2.868 5.735l-24.09 12.045 30.973 30.4c1.147 1.147 1.721 2.294 1.721 4.015 0 1.72-.574 2.867-1.721 4.015l-16.634 17.78c-1.147 1.147-2.868 1.721-4.588 1.721zm-36.135-47.033c1.72 0 2.868.574 4.015 1.721l32.693 32.12 9.177-9.177-32.693-31.547c-1.147-1.147-1.721-2.868-1.721-5.162 0-1.721 1.147-3.441 2.868-4.015l19.501-9.751-77.432-28.105 28.105 76.285 10.325-19.501c.573-1.721 2.294-2.868 4.015-2.868zm-121.73-126.037 8.111-8.11 39.347 39.341-8.116 8.111zm64.372-27.107h11.472v55.063h-11.472zm29.081 58.046 36.094-36.095 8.111 8.116-36.095 36.095zm-114.543 26.269h57.357v11.472h-57.357zm21.205 67.762 38.126-38.119 8.116 8.11-38.126 38.125z" fill="#fff"/></g></svg>