<svg fill="none" height="24" viewBox="0 0 24 24" width="24" xmlns="http://www.w3.org/2000/svg"><path clip-rule="evenodd" d="m12 0-9.42857 4.28571-2.57143 11.14289 6.85714 8.5714h10.28576l6.8571-8.5714-2.5714-11.14289zm-.508 4v1.99036c-1.56374.12324-2.95847.84871-3.9692 1.94771l-1.51162-1.25756-.63955.76875 1.53489 1.27691c-.66316 1.00348-1.04981 2.21343-1.04981 3.51273 0 .3262.02437.6468.07136.9598l-1.94777.4305.21579.9764 1.95755-.4326c.4717 1.4916 1.47434 2.7413 2.78265 3.5094l-.90058 1.9335.90649.4222.89556-1.9227c.66254.2526 1.38004.3908 2.13014.3908.7707 0 1.5069-.1459 2.1845-.4118l.9054 1.9437.9065-.4222-.9145-1.9633c1.2876-.7728 2.2727-2.0146 2.7366-3.4928l2.0175.4458.2158-.9764-2.0099-.4442c.0457-.3087.0694-.6247.0694-.9461 0-1.2855-.3785-2.48357-1.0288-3.48071l1.5704-1.30927-.6404-.76808-1.5417 1.28532c-1.0024-1.10337-2.3892-1.83647-3.9467-1.97182v-1.99434zm-3.19937 4.57851c.82753-.88149 1.95027-1.46505 3.19937-1.58423v1.48658c-.8005.11566-1.51589.49245-2.0647 1.04162zm.52674 1.73899-1.13902-.94756c-.52053.82396-.82364 1.80846-.82364 2.86896 0 .2525.01719.5007.0504.7435l1.42593-.3152c-.01548-.1406-.02342-.2836-.02342-.4283 0-.6991.18546-1.3565.50975-1.9214zm-.24903 3.3214-1.43618.3174c.39758 1.1893 1.19652 2.1831 2.22708 2.8138l.62946-1.3514c-.637-.4266-1.1366-1.0483-1.42036-1.7798zm2.31956 2.2177-.6281 1.3485c.5342.1951 1.1087.3011 1.7061.3011.6179 0 1.2112-.1134 1.7608-.3214l-.6145-1.3193c-.3465.1098-.7152.169-1.0982.169-.3933 0-.7715-.0624-1.1261-.1779zm3.127-.4216.6075 1.3043c1.0103-.6345 1.792-1.6203 2.1817-2.7962l-1.3469-.2976c-.2879.7379-.7956 1.3637-1.4423 1.7895zm1.6814-2.7608 1.3323.2944c.032-.2384.0486-.4819.0486-.7297 0-1.0461-.295-2.0184-.8027-2.83551l-1.0744.89571c.3308.569.5203 1.2331.5203 1.9398 0 .1471-.0082.2923-.0241.4353zm-1.1085-3.16658 1.0801-.90048c-.8194-.88606-1.9346-1.47721-3.1779-1.60803v1.47514c.8126.10634 1.54.48136 2.0978 1.03337zm-5.28018 2.73128c0-1.5569 1.22458-2.79554 2.70638-2.79554 1.4819 0 2.7064 1.23864 2.7064 2.79554 0 1.557-1.2245 2.7956-2.7064 2.7956-1.4818 0-2.70638-1.2386-2.70638-2.7956z" fill="#0069ff" fill-rule="evenodd"/></svg>